<svg xmlns="http://www.w3.org/2000/svg" xmlns:xlink="http://www.w3.org/1999/xlink" width="100" zoomAndPan="magnify" viewBox="0 0 75 74.999997" height="100" preserveAspectRatio="xMidYMid meet" version="1.0"><defs><filter x="0%" y="0%" width="100%" height="100%" id="5c3e0bd208"><feColorMatrix values="0 0 0 0 1 0 0 0 0 1 0 0 0 0 1 0 0 0 1 0" color-interpolation-filters="sRGB"/></filter><g/><mask id="e4ad4a630e"><g filter="url(#5c3e0bd208)"><rect x="-7.5" width="90" fill="#000000" y="-7.5" height="89.999996" fill-opacity="0.6863"/></g></mask><clipPath id="929b808ee4"><path d="M 6 12 L 41 12 L 41 30 L 6 30 Z M 6 12 " clip-rule="nonzero"/></clipPath><clipPath id="389cdfc31f"><path d="M 23.394531 0.0820312 L 45.882812 22.570312 L 23.234375 45.21875 L 0.746094 22.730469 Z M 23.394531 0.0820312 " clip-rule="nonzero"/></clipPath><clipPath id="ac4602a63f"><path d="M 23.394531 0.0820312 L 45.882812 22.570312 L 23.234375 45.21875 L 0.746094 22.730469 Z M 23.394531 0.0820312 " clip-rule="nonzero"/></clipPath><clipPath id="09fc82c755"><path d="M 23.394531 0.0820312 L 45.882812 22.570312 L 23.234375 45.21875 L 0.746094 22.730469 Z M 23.394531 0.0820312 " clip-rule="nonzero"/></clipPath><clipPath id="e3c6eb8b75"><path d="M 40.117188 27.242188 C 40.140625 28.285156 39.070312 29.023438 38.125 28.59375 C 36.25 27.75 34.945312 25.871094 34.945312 23.671875 L 34.945312 22.527344 L 34.9375 21.4375 C 34.9375 19.875 33.660156 18.429688 32.101562 18.320312 C 30.304688 18.195312 28.804688 19.617188 28.804688 21.386719 L 28.808594 22.535156 L 28.808594 23.605469 C 28.804688 26.492188 26.578125 28.933594 23.695312 29.085938 C 20.585938 29.253906 18.011719 26.777344 18.019531 23.703125 L 18.019531 21.46875 C 18.023438 19.902344 16.746094 18.460938 15.1875 18.347656 C 13.386719 18.222656 11.890625 19.644531 11.886719 21.414062 L 11.886719 23.628906 C 11.882812 26.097656 10.25 28.238281 7.976562 28.902344 C 7.292969 29.097656 6.609375 28.597656 6.589844 27.886719 L 6.492188 23.507812 C 6.515625 23.511719 7.050781 23.066406 7.074219 23.070312 C 8.542969 23.351562 9 22.660156 9.554688 22.085938 L 9.554688 21.394531 C 9.558594 20.171875 9.964844 19.042969 10.652344 18.132812 C 10.902344 16.925781 11.207031 15.65625 11.535156 14.863281 C 12.316406 12.953125 16.191406 12.285156 17.324219 13.375 C 18.023438 14.054688 18.609375 16.109375 19.242188 18.128906 C 19.882812 18.972656 20.28125 20.011719 20.335938 21.144531 C 20.386719 21.253906 20.441406 21.367188 20.496094 21.46875 C 21.691406 23.765625 22.914062 22.652344 25.371094 22.632812 C 25.824219 22.625 26.1875 22.457031 26.476562 22.167969 L 26.476562 21.390625 C 26.476562 20.128906 26.910156 18.976562 27.636719 18.058594 C 27.671875 17.324219 27.667969 16.675781 27.675781 16.308594 C 27.714844 14.964844 30.433594 13.230469 31.957031 12.910156 C 33.476562 12.59375 36.015625 15.027344 36.566406 16.597656 C 36.839844 17.386719 36.792969 18.339844 36.867188 19.324219 C 37.097656 19.871094 37.238281 20.46875 37.265625 21.101562 C 37.425781 21.476562 37.648438 21.84375 37.960938 22.195312 C 38.582031 22.894531 39.308594 23.613281 40.035156 23.585938 Z M 40.117188 27.242188 " clip-rule="nonzero"/></clipPath><linearGradient x1="457.068325" gradientTransform="matrix(0.0485553, 0.0485553, -0.0486371, 0.0486371, 23.452036, 0.876895)" y1="-60.897618" x2="-47.346717" gradientUnits="userSpaceOnUse" y2="475.329247" id="60f6b6e371"><stop stop-opacity="1" stop-color="rgb(54.499817%, 79.998779%, 92.498779%)" offset="0"/><stop stop-opacity="1" stop-color="rgb(54.499817%, 79.998779%, 92.498779%)" offset="0.125"/><stop stop-opacity="1" stop-color="rgb(54.499817%, 79.998779%, 92.498779%)" offset="0.1875"/><stop stop-opacity="1" stop-color="rgb(54.499817%, 79.998779%, 92.498779%)" offset="0.21875"/><stop stop-opacity="1" stop-color="rgb(54.499817%, 79.998779%, 92.498779%)" offset="0.234375"/><stop stop-opacity="1" stop-color="rgb(54.499817%, 79.998779%, 92.498779%)" offset="0.242187"/><stop stop-opacity="1" stop-color="rgb(54.75769%, 79.86145%, 92.353821%)" offset="0.246094"/><stop stop-opacity="1" stop-color="rgb(55.01709%, 79.724121%, 92.210388%)" offset="0.25"/><stop stop-opacity="1" stop-color="rgb(55.28717%, 79.580688%, 92.059326%)" offset="0.253906"/><stop stop-opacity="1" stop-color="rgb(55.557251%, 79.437256%, 91.908264%)" offset="0.257812"/><stop stop-opacity="1" stop-color="rgb(55.827332%, 79.293823%, 91.757202%)" offset="0.261719"/><stop stop-opacity="1" stop-color="rgb(56.097412%, 79.150391%, 91.60614%)" offset="0.265625"/><stop stop-opacity="1" stop-color="rgb(56.367493%, 79.006958%, 91.455078%)" offset="0.269531"/><stop stop-opacity="1" stop-color="rgb(56.639099%, 78.863525%, 91.304016%)" offset="0.273438"/><stop stop-opacity="1" stop-color="rgb(56.90918%, 78.720093%, 91.152954%)" offset="0.277344"/><stop stop-opacity="1" stop-color="rgb(57.17926%, 78.57666%, 91.001892%)" offset="0.28125"/><stop stop-opacity="1" stop-color="rgb(57.449341%, 78.433228%, 90.85083%)" offset="0.285156"/><stop stop-opacity="1" stop-color="rgb(57.720947%, 78.289795%, 90.699768%)" offset="0.289062"/><stop stop-opacity="1" stop-color="rgb(57.991028%, 78.146362%, 90.548706%)" offset="0.292969"/><stop stop-opacity="1" stop-color="rgb(58.261108%, 78.00293%, 90.397644%)" offset="0.296875"/><stop stop-opacity="1" stop-color="rgb(58.531189%, 77.859497%, 90.246582%)" offset="0.300781"/><stop stop-opacity="1" stop-color="rgb(58.802795%, 77.716064%, 90.09552%)" offset="0.304687"/><stop stop-opacity="1" stop-color="rgb(59.072876%, 77.572632%, 89.944458%)" offset="0.308594"/><stop stop-opacity="1" stop-color="rgb(59.342957%, 77.429199%, 89.793396%)" offset="0.3125"/><stop stop-opacity="1" stop-color="rgb(59.613037%, 77.285767%, 89.642334%)" offset="0.316406"/><stop stop-opacity="1" stop-color="rgb(59.884644%, 77.142334%, 89.491272%)" offset="0.320312"/><stop stop-opacity="1" stop-color="rgb(60.154724%, 76.998901%, 89.34021%)" offset="0.324219"/><stop stop-opacity="1" stop-color="rgb(60.424805%, 76.855469%, 89.189148%)" offset="0.328125"/><stop stop-opacity="1" stop-color="rgb(60.694885%, 76.712036%, 89.038086%)" offset="0.332031"/><stop stop-opacity="1" stop-color="rgb(60.966492%, 76.568604%, 88.887024%)" offset="0.335937"/><stop stop-opacity="1" stop-color="rgb(61.236572%, 76.425171%, 88.735962%)" offset="0.339844"/><stop stop-opacity="1" stop-color="rgb(61.506653%, 76.281738%, 88.5849%)" offset="0.34375"/><stop stop-opacity="1" stop-color="rgb(61.776733%, 76.13678%, 88.433838%)" offset="0.347656"/><stop stop-opacity="1" stop-color="rgb(62.046814%, 75.993347%, 88.282776%)" offset="0.351562"/><stop stop-opacity="1" stop-color="rgb(62.316895%, 75.849915%, 88.131714%)" offset="0.355469"/><stop stop-opacity="1" stop-color="rgb(62.588501%, 75.706482%, 87.980652%)" offset="0.359375"/><stop stop-opacity="1" stop-color="rgb(62.858582%, 75.563049%, 87.82959%)" offset="0.363281"/><stop stop-opacity="1" stop-color="rgb(63.128662%, 75.419617%, 87.678528%)" offset="0.367188"/><stop stop-opacity="1" stop-color="rgb(63.398743%, 75.276184%, 87.527466%)" offset="0.371094"/><stop stop-opacity="1" stop-color="rgb(63.670349%, 75.132751%, 87.376404%)" offset="0.375"/><stop stop-opacity="1" stop-color="rgb(63.94043%, 74.989319%, 87.225342%)" offset="0.378906"/><stop stop-opacity="1" stop-color="rgb(64.21051%, 74.845886%, 87.07428%)" offset="0.382812"/><stop stop-opacity="1" stop-color="rgb(64.480591%, 74.702454%, 86.923218%)" offset="0.386719"/><stop stop-opacity="1" stop-color="rgb(64.752197%, 74.559021%, 86.772156%)" offset="0.390625"/><stop stop-opacity="1" stop-color="rgb(65.022278%, 74.415588%, 86.619568%)" offset="0.394531"/><stop stop-opacity="1" stop-color="rgb(65.292358%, 74.272156%, 86.468506%)" offset="0.398438"/><stop stop-opacity="1" stop-color="rgb(65.562439%, 74.128723%, 86.317444%)" offset="0.402344"/><stop stop-opacity="1" stop-color="rgb(65.834045%, 73.985291%, 86.166382%)" offset="0.40625"/><stop stop-opacity="1" stop-color="rgb(66.104126%, 73.841858%, 86.01532%)" offset="0.410156"/><stop stop-opacity="1" stop-color="rgb(66.374207%, 73.698425%, 85.864258%)" offset="0.414062"/><stop stop-opacity="1" stop-color="rgb(66.644287%, 73.554993%, 85.713196%)" offset="0.417969"/><stop stop-opacity="1" stop-color="rgb(66.915894%, 73.41156%, 85.562134%)" offset="0.421875"/><stop stop-opacity="1" stop-color="rgb(67.185974%, 73.268127%, 85.411072%)" offset="0.425781"/><stop stop-opacity="1" stop-color="rgb(67.456055%, 73.124695%, 85.26001%)" offset="0.429688"/><stop stop-opacity="1" stop-color="rgb(67.726135%, 72.981262%, 85.108948%)" offset="0.433594"/><stop stop-opacity="1" stop-color="rgb(67.996216%, 72.83783%, 84.957886%)" offset="0.4375"/><stop stop-opacity="1" stop-color="rgb(68.266296%, 72.694397%, 84.806824%)" offset="0.441406"/><stop stop-opacity="1" stop-color="rgb(68.537903%, 72.550964%, 84.655762%)" offset="0.445312"/><stop stop-opacity="1" stop-color="rgb(68.807983%, 72.406006%, 84.5047%)" offset="0.449219"/><stop stop-opacity="1" stop-color="rgb(69.078064%, 72.262573%, 84.353638%)" offset="0.453125"/><stop stop-opacity="1" stop-color="rgb(69.348145%, 72.119141%, 84.202576%)" offset="0.457031"/><stop stop-opacity="1" stop-color="rgb(69.619751%, 71.975708%, 84.051514%)" offset="0.460937"/><stop stop-opacity="1" stop-color="rgb(69.889832%, 71.832275%, 83.900452%)" offset="0.464844"/><stop stop-opacity="1" stop-color="rgb(70.159912%, 71.688843%, 83.74939%)" offset="0.46875"/><stop stop-opacity="1" stop-color="rgb(70.429993%, 71.54541%, 83.598328%)" offset="0.472656"/><stop stop-opacity="1" stop-color="rgb(70.701599%, 71.401978%, 83.447266%)" offset="0.476562"/><stop stop-opacity="1" stop-color="rgb(70.97168%, 71.258545%, 83.296204%)" offset="0.480469"/><stop stop-opacity="1" stop-color="rgb(71.24176%, 71.115112%, 83.145142%)" offset="0.484375"/><stop stop-opacity="1" stop-color="rgb(71.511841%, 70.97168%, 82.99408%)" offset="0.488281"/><stop stop-opacity="1" stop-color="rgb(71.783447%, 70.828247%, 82.843018%)" offset="0.492187"/><stop stop-opacity="1" stop-color="rgb(72.053528%, 70.684814%, 82.691956%)" offset="0.496094"/><stop stop-opacity="1" stop-color="rgb(72.323608%, 70.541382%, 82.540894%)" offset="0.5"/><stop stop-opacity="1" stop-color="rgb(72.593689%, 70.397949%, 82.389832%)" offset="0.503906"/><stop stop-opacity="1" stop-color="rgb(72.865295%, 70.254517%, 82.23877%)" offset="0.507812"/><stop stop-opacity="1" stop-color="rgb(73.135376%, 70.111084%, 82.087708%)" offset="0.511719"/><stop stop-opacity="1" stop-color="rgb(73.405457%, 69.967651%, 81.936646%)" offset="0.515625"/><stop stop-opacity="1" stop-color="rgb(73.675537%, 69.824219%, 81.785583%)" offset="0.519531"/><stop stop-opacity="1" stop-color="rgb(73.945618%, 69.680786%, 81.634521%)" offset="0.523437"/><stop stop-opacity="1" stop-color="rgb(74.215698%, 69.537354%, 81.483459%)" offset="0.527344"/><stop stop-opacity="1" stop-color="rgb(74.487305%, 69.393921%, 81.332397%)" offset="0.53125"/><stop stop-opacity="1" stop-color="rgb(74.757385%, 69.250488%, 81.181335%)" offset="0.535156"/><stop stop-opacity="1" stop-color="rgb(75.027466%, 69.107056%, 81.030273%)" offset="0.539062"/><stop stop-opacity="1" stop-color="rgb(75.297546%, 68.963623%, 80.879211%)" offset="0.542969"/><stop stop-opacity="1" stop-color="rgb(75.569153%, 68.82019%, 80.728149%)" offset="0.546875"/><stop stop-opacity="1" stop-color="rgb(75.839233%, 68.675232%, 80.577087%)" offset="0.550781"/><stop stop-opacity="1" stop-color="rgb(76.109314%, 68.531799%, 80.426025%)" offset="0.554688"/><stop stop-opacity="1" stop-color="rgb(76.379395%, 68.388367%, 80.274963%)" offset="0.558594"/><stop stop-opacity="1" stop-color="rgb(76.651001%, 68.244934%, 80.123901%)" offset="0.5625"/><stop stop-opacity="1" stop-color="rgb(76.921082%, 68.101501%, 79.972839%)" offset="0.566406"/><stop stop-opacity="1" stop-color="rgb(77.191162%, 67.958069%, 79.821777%)" offset="0.570312"/><stop stop-opacity="1" stop-color="rgb(77.461243%, 67.814636%, 79.670715%)" offset="0.574219"/><stop stop-opacity="1" stop-color="rgb(77.732849%, 67.671204%, 79.519653%)" offset="0.578125"/><stop stop-opacity="1" stop-color="rgb(78.00293%, 67.527771%, 79.368591%)" offset="0.582031"/><stop stop-opacity="1" stop-color="rgb(78.27301%, 67.384338%, 79.217529%)" offset="0.585938"/><stop stop-opacity="1" stop-color="rgb(78.543091%, 67.240906%, 79.066467%)" offset="0.589844"/><stop stop-opacity="1" stop-color="rgb(78.814697%, 67.097473%, 78.915405%)" offset="0.59375"/><stop stop-opacity="1" stop-color="rgb(79.084778%, 66.954041%, 78.764343%)" offset="0.597656"/><stop stop-opacity="1" stop-color="rgb(79.354858%, 66.810608%, 78.613281%)" offset="0.601562"/><stop stop-opacity="1" stop-color="rgb(79.624939%, 66.667175%, 78.462219%)" offset="0.605469"/><stop stop-opacity="1" stop-color="rgb(79.89502%, 66.523743%, 78.311157%)" offset="0.609375"/><stop stop-opacity="1" stop-color="rgb(80.1651%, 66.38031%, 78.160095%)" offset="0.613281"/><stop stop-opacity="1" stop-color="rgb(80.436707%, 66.236877%, 78.009033%)" offset="0.617188"/><stop stop-opacity="1" stop-color="rgb(80.706787%, 66.093445%, 77.857971%)" offset="0.621094"/><stop stop-opacity="1" stop-color="rgb(80.976868%, 65.950012%, 77.706909%)" offset="0.625"/><stop stop-opacity="1" stop-color="rgb(81.246948%, 65.80658%, 77.555847%)" offset="0.628906"/><stop stop-opacity="1" stop-color="rgb(81.518555%, 65.663147%, 77.404785%)" offset="0.632812"/><stop stop-opacity="1" stop-color="rgb(81.788635%, 65.519714%, 77.253723%)" offset="0.636719"/><stop stop-opacity="1" stop-color="rgb(82.058716%, 65.376282%, 77.102661%)" offset="0.640625"/><stop stop-opacity="1" stop-color="rgb(82.328796%, 65.232849%, 76.951599%)" offset="0.644531"/><stop stop-opacity="1" stop-color="rgb(82.600403%, 65.089417%, 76.800537%)" offset="0.648438"/><stop stop-opacity="1" stop-color="rgb(82.870483%, 64.944458%, 76.649475%)" offset="0.652344"/><stop stop-opacity="1" stop-color="rgb(83.140564%, 64.801025%, 76.498413%)" offset="0.65625"/><stop stop-opacity="1" stop-color="rgb(83.410645%, 64.657593%, 76.347351%)" offset="0.660156"/><stop stop-opacity="1" stop-color="rgb(83.682251%, 64.51416%, 76.196289%)" offset="0.664062"/><stop stop-opacity="1" stop-color="rgb(83.952332%, 64.370728%, 76.045227%)" offset="0.667969"/><stop stop-opacity="1" stop-color="rgb(84.222412%, 64.227295%, 75.894165%)" offset="0.671875"/><stop stop-opacity="1" stop-color="rgb(84.492493%, 64.083862%, 75.743103%)" offset="0.675781"/><stop stop-opacity="1" stop-color="rgb(84.762573%, 63.94043%, 75.592041%)" offset="0.679687"/><stop stop-opacity="1" stop-color="rgb(85.032654%, 63.796997%, 75.440979%)" offset="0.683594"/><stop stop-opacity="1" stop-color="rgb(85.30426%, 63.653564%, 75.289917%)" offset="0.6875"/><stop stop-opacity="1" stop-color="rgb(85.574341%, 63.510132%, 75.138855%)" offset="0.691406"/><stop stop-opacity="1" stop-color="rgb(85.844421%, 63.366699%, 74.987793%)" offset="0.695312"/><stop stop-opacity="1" stop-color="rgb(86.114502%, 63.223267%, 74.836731%)" offset="0.699219"/><stop stop-opacity="1" stop-color="rgb(86.386108%, 63.079834%, 74.685669%)" offset="0.703125"/><stop stop-opacity="1" stop-color="rgb(86.656189%, 62.936401%, 74.534607%)" offset="0.707031"/><stop stop-opacity="1" stop-color="rgb(86.92627%, 62.792969%, 74.383545%)" offset="0.710937"/><stop stop-opacity="1" stop-color="rgb(87.19635%, 62.649536%, 74.232483%)" offset="0.714844"/><stop stop-opacity="1" stop-color="rgb(87.467957%, 62.506104%, 74.081421%)" offset="0.71875"/><stop stop-opacity="1" stop-color="rgb(87.738037%, 62.362671%, 73.930359%)" offset="0.722656"/><stop stop-opacity="1" stop-color="rgb(88.008118%, 62.219238%, 73.779297%)" offset="0.726562"/><stop stop-opacity="1" stop-color="rgb(88.278198%, 62.075806%, 73.626709%)" offset="0.730469"/><stop stop-opacity="1" stop-color="rgb(88.549805%, 61.932373%, 73.475647%)" offset="0.734375"/><stop stop-opacity="1" stop-color="rgb(88.819885%, 61.78894%, 73.324585%)" offset="0.738281"/><stop stop-opacity="1" stop-color="rgb(89.089966%, 61.645508%, 73.173523%)" offset="0.742188"/><stop stop-opacity="1" stop-color="rgb(89.360046%, 61.502075%, 73.022461%)" offset="0.746094"/><stop stop-opacity="1" stop-color="rgb(89.631653%, 61.358643%, 72.871399%)" offset="0.75"/><stop stop-opacity="1" stop-color="rgb(89.901733%, 61.213684%, 72.720337%)" offset="0.753906"/><stop stop-opacity="1" stop-color="rgb(90.171814%, 61.070251%, 72.569275%)" offset="0.757812"/><stop stop-opacity="1" stop-color="rgb(90.441895%, 60.926819%, 72.418213%)" offset="0.761719"/><stop stop-opacity="1" stop-color="rgb(90.711975%, 60.783386%, 72.267151%)" offset="0.765625"/><stop stop-opacity="1" stop-color="rgb(90.982056%, 60.639954%, 72.116089%)" offset="0.769531"/><stop stop-opacity="1" stop-color="rgb(91.253662%, 60.496521%, 71.965027%)" offset="0.773438"/><stop stop-opacity="1" stop-color="rgb(91.523743%, 60.353088%, 71.813965%)" offset="0.777344"/><stop stop-opacity="1" stop-color="rgb(91.793823%, 60.209656%, 71.662903%)" offset="0.78125"/><stop stop-opacity="1" stop-color="rgb(92.063904%, 60.066223%, 71.511841%)" offset="0.785156"/><stop stop-opacity="1" stop-color="rgb(92.33551%, 59.922791%, 71.360779%)" offset="0.789062"/><stop stop-opacity="1" stop-color="rgb(92.605591%, 59.779358%, 71.209717%)" offset="0.792969"/><stop stop-opacity="1" stop-color="rgb(92.875671%, 59.635925%, 71.058655%)" offset="0.796875"/><stop stop-opacity="1" stop-color="rgb(93.145752%, 59.492493%, 70.907593%)" offset="0.800781"/><stop stop-opacity="1" stop-color="rgb(93.417358%, 59.34906%, 70.756531%)" offset="0.804688"/><stop stop-opacity="1" stop-color="rgb(93.557739%, 59.274292%, 70.677185%)" offset="0.8125"/><stop stop-opacity="1" stop-color="rgb(93.699646%, 59.199524%, 70.599365%)" offset="0.875"/><stop stop-opacity="1" stop-color="rgb(93.699646%, 59.199524%, 70.599365%)" offset="1"/></linearGradient><clipPath id="668cb36a32"><path d="M 6 11 L 41 11 L 41 25 L 6 25 Z M 6 11 " clip-rule="nonzero"/></clipPath><clipPath id="9904933c78"><path d="M 23.394531 0.0820312 L 45.882812 22.570312 L 23.234375 45.21875 L 0.746094 22.730469 Z M 23.394531 0.0820312 " clip-rule="nonzero"/></clipPath><clipPath id="aa0ac25ae1"><path d="M 23.394531 0.0820312 L 45.882812 22.570312 L 23.234375 45.21875 L 0.746094 22.730469 Z M 23.394531 0.0820312 " clip-rule="nonzero"/></clipPath><clipPath id="93d5716b56"><path d="M 23.394531 0.0820312 L 45.882812 22.570312 L 23.234375 45.21875 L 0.746094 22.730469 Z M 23.394531 0.0820312 " clip-rule="nonzero"/></clipPath><clipPath id="6676521754"><path d="M 40.027344 23.511719 C 40.039062 24.136719 39.449219 24.597656 38.855469 24.421875 C 36.597656 23.777344 34.941406 21.707031 34.945312 19.238281 L 34.945312 17.019531 C 34.949219 15.203125 33.460938 13.746094 31.660156 13.878906 C 30.074219 13.996094 28.820312 15.320312 28.816406 16.941406 L 28.816406 19.128906 C 28.8125 22.25 26.210938 24.8125 23.09375 24.632812 C 20.265625 24.46875 18.019531 22.117188 18.023438 19.25 L 18.019531 18.109375 L 18.019531 17.039062 C 18.023438 15.222656 16.535156 13.765625 14.734375 13.898438 C 13.148438 14.015625 11.894531 15.339844 11.890625 16.960938 L 11.890625 18.109375 L 11.886719 19.171875 C 11.882812 21.769531 10.082031 23.984375 7.644531 24.53125 C 7.152344 24.617188 6.515625 24.484375 6.492188 23.507812 C 6.433594 22.867188 6.882812 22.398438 7.359375 22.203125 C 7.480469 22.171875 7.597656 22.121094 7.707031 22.078125 C 8.792969 21.605469 9.550781 20.527344 9.546875 19.269531 L 9.558594 18.109375 L 9.558594 17.070312 C 9.558594 13.945312 12.164062 11.386719 15.285156 11.570312 C 18.113281 11.734375 20.355469 14.082031 20.351562 16.949219 L 20.351562 19.167969 C 20.347656 20.984375 21.835938 22.441406 23.636719 22.308594 C 25.222656 22.191406 26.476562 20.867188 26.480469 19.242188 L 26.480469 17.058594 C 26.488281 13.933594 29.085938 11.375 32.203125 11.554688 C 35.03125 11.71875 37.277344 14.070312 37.273438 16.9375 L 37.273438 19.171875 C 37.269531 20.621094 37.832031 21.988281 39.097656 22.347656 C 39.632812 22.503906 40.015625 22.964844 40.027344 23.511719 Z M 40.027344 23.511719 " clip-rule="nonzero"/></clipPath><linearGradient x1="239.361911" gradientTransform="matrix(0.0485553, 0.0485553, -0.0486371, 0.0486371, 23.452036, 0.876895)" y1="-88.011799" x2="161.965453" gradientUnits="userSpaceOnUse" y2="453.743237" id="15c2ba72a2"><stop stop-opacity="1" stop-color="rgb(100%, 85.499573%, 91.398621%)" offset="0"/><stop stop-opacity="1" stop-color="rgb(100%, 85.499573%, 91.398621%)" offset="0.125188"/><stop stop-opacity="1" stop-color="rgb(100%, 85.499573%, 91.398621%)" offset="0.25"/><stop stop-opacity="1" stop-color="rgb(100%, 85.499573%, 91.398621%)" offset="0.375"/><stop stop-opacity="1" stop-color="rgb(100%, 85.499573%, 91.398621%)" offset="0.40625"/><stop stop-opacity="1" stop-color="rgb(100%, 85.499573%, 91.398621%)" offset="0.421875"/><stop stop-opacity="1" stop-color="rgb(99.986267%, 85.176086%, 91.136169%)" offset="0.425781"/><stop stop-opacity="1" stop-color="rgb(99.97406%, 84.854126%, 90.875244%)" offset="0.429688"/><stop stop-opacity="1" stop-color="rgb(99.961853%, 84.524536%, 90.608215%)" offset="0.433594"/><stop stop-opacity="1" stop-color="rgb(99.949646%, 84.196472%, 90.341187%)" offset="0.4375"/><stop stop-opacity="1" stop-color="rgb(99.935913%, 83.866882%, 90.074158%)" offset="0.441406"/><stop stop-opacity="1" stop-color="rgb(99.923706%, 83.538818%, 89.807129%)" offset="0.445312"/><stop stop-opacity="1" stop-color="rgb(99.911499%, 83.209229%, 89.5401%)" offset="0.449219"/><stop stop-opacity="1" stop-color="rgb(99.899292%, 82.881165%, 89.273071%)" offset="0.453125"/><stop stop-opacity="1" stop-color="rgb(99.885559%, 82.551575%, 89.004517%)" offset="0.457031"/><stop stop-opacity="1" stop-color="rgb(99.873352%, 82.223511%, 88.737488%)" offset="0.460938"/><stop stop-opacity="1" stop-color="rgb(99.859619%, 81.893921%, 88.470459%)" offset="0.464844"/><stop stop-opacity="1" stop-color="rgb(99.847412%, 81.565857%, 88.20343%)" offset="0.46875"/><stop stop-opacity="1" stop-color="rgb(99.835205%, 81.237793%, 87.936401%)" offset="0.472656"/><stop stop-opacity="1" stop-color="rgb(99.822998%, 80.909729%, 87.669373%)" offset="0.476562"/><stop stop-opacity="1" stop-color="rgb(99.809265%, 80.580139%, 87.402344%)" offset="0.480469"/><stop stop-opacity="1" stop-color="rgb(99.797058%, 80.252075%, 87.135315%)" offset="0.484375"/><stop stop-opacity="1" stop-color="rgb(99.784851%, 79.922485%, 86.868286%)" offset="0.488281"/><stop stop-opacity="1" stop-color="rgb(99.772644%, 79.594421%, 86.601257%)" offset="0.492188"/><stop stop-opacity="1" stop-color="rgb(99.758911%, 79.264832%, 86.334229%)" offset="0.496094"/><stop stop-opacity="1" stop-color="rgb(99.746704%, 78.936768%, 86.0672%)" offset="0.5"/><stop stop-opacity="1" stop-color="rgb(99.734497%, 78.607178%, 85.800171%)" offset="0.503906"/><stop stop-opacity="1" stop-color="rgb(99.72229%, 78.279114%, 85.533142%)" offset="0.507812"/><stop stop-opacity="1" stop-color="rgb(99.708557%, 77.949524%, 85.266113%)" offset="0.511719"/><stop stop-opacity="1" stop-color="rgb(99.69635%, 77.62146%, 84.999084%)" offset="0.515625"/><stop stop-opacity="1" stop-color="rgb(99.682617%, 77.29187%, 84.732056%)" offset="0.519531"/><stop stop-opacity="1" stop-color="rgb(99.67041%, 76.963806%, 84.465027%)" offset="0.523438"/><stop stop-opacity="1" stop-color="rgb(99.658203%, 76.634216%, 84.197998%)" offset="0.527344"/><stop stop-opacity="1" stop-color="rgb(99.645996%, 76.306152%, 83.930969%)" offset="0.53125"/><stop stop-opacity="1" stop-color="rgb(99.632263%, 75.978088%, 83.66394%)" offset="0.535156"/><stop stop-opacity="1" stop-color="rgb(99.620056%, 75.650024%, 83.396912%)" offset="0.539062"/><stop stop-opacity="1" stop-color="rgb(99.607849%, 75.320435%, 83.128357%)" offset="0.542969"/><stop stop-opacity="1" stop-color="rgb(99.595642%, 74.992371%, 82.861328%)" offset="0.546875"/><stop stop-opacity="1" stop-color="rgb(99.581909%, 74.662781%, 82.594299%)" offset="0.550781"/><stop stop-opacity="1" stop-color="rgb(99.569702%, 74.334717%, 82.327271%)" offset="0.554688"/><stop stop-opacity="1" stop-color="rgb(99.557495%, 74.005127%, 82.060242%)" offset="0.558594"/><stop stop-opacity="1" stop-color="rgb(99.545288%, 73.677063%, 81.793213%)" offset="0.5625"/><stop stop-opacity="1" stop-color="rgb(99.531555%, 73.347473%, 81.526184%)" offset="0.566406"/><stop stop-opacity="1" stop-color="rgb(99.519348%, 73.019409%, 81.259155%)" offset="0.570312"/><stop stop-opacity="1" stop-color="rgb(99.505615%, 72.689819%, 80.992126%)" offset="0.574219"/><stop stop-opacity="1" stop-color="rgb(99.493408%, 72.361755%, 80.725098%)" offset="0.578125"/><stop stop-opacity="1" stop-color="rgb(99.481201%, 72.032166%, 80.458069%)" offset="0.582031"/><stop stop-opacity="1" stop-color="rgb(99.468994%, 71.704102%, 80.19104%)" offset="0.585938"/><stop stop-opacity="1" stop-color="rgb(99.455261%, 71.374512%, 79.924011%)" offset="0.589844"/><stop stop-opacity="1" stop-color="rgb(99.443054%, 71.046448%, 79.656982%)" offset="0.59375"/><stop stop-opacity="1" stop-color="rgb(99.430847%, 70.716858%, 79.389954%)" offset="0.597656"/><stop stop-opacity="1" stop-color="rgb(99.41864%, 70.388794%, 79.122925%)" offset="0.601563"/><stop stop-opacity="1" stop-color="rgb(99.404907%, 70.06073%, 78.855896%)" offset="0.605469"/><stop stop-opacity="1" stop-color="rgb(99.3927%, 69.732666%, 78.588867%)" offset="0.609375"/><stop stop-opacity="1" stop-color="rgb(99.378967%, 69.403076%, 78.321838%)" offset="0.613281"/><stop stop-opacity="1" stop-color="rgb(99.36676%, 69.075012%, 78.05481%)" offset="0.617188"/><stop stop-opacity="1" stop-color="rgb(99.354553%, 68.745422%, 77.786255%)" offset="0.621094"/><stop stop-opacity="1" stop-color="rgb(99.342346%, 68.417358%, 77.519226%)" offset="0.625"/><stop stop-opacity="1" stop-color="rgb(99.328613%, 68.087769%, 77.252197%)" offset="0.628906"/><stop stop-opacity="1" stop-color="rgb(99.316406%, 67.759705%, 76.985168%)" offset="0.632812"/><stop stop-opacity="1" stop-color="rgb(99.304199%, 67.430115%, 76.71814%)" offset="0.636719"/><stop stop-opacity="1" stop-color="rgb(99.291992%, 67.102051%, 76.451111%)" offset="0.640625"/><stop stop-opacity="1" stop-color="rgb(99.278259%, 66.772461%, 76.184082%)" offset="0.644531"/><stop stop-opacity="1" stop-color="rgb(99.266052%, 66.444397%, 75.917053%)" offset="0.648438"/><stop stop-opacity="1" stop-color="rgb(99.253845%, 66.114807%, 75.650024%)" offset="0.652344"/><stop stop-opacity="1" stop-color="rgb(99.241638%, 65.786743%, 75.382996%)" offset="0.65625"/><stop stop-opacity="1" stop-color="rgb(99.227905%, 65.457153%, 75.115967%)" offset="0.660156"/><stop stop-opacity="1" stop-color="rgb(99.215698%, 65.129089%, 74.848938%)" offset="0.664062"/><stop stop-opacity="1" stop-color="rgb(99.206543%, 64.91394%, 74.673462%)" offset="0.667969"/><stop stop-opacity="1" stop-color="rgb(99.198914%, 64.698792%, 74.499512%)" offset="0.671875"/><stop stop-opacity="1" stop-color="rgb(99.198914%, 64.698792%, 74.499512%)" offset="0.6875"/><stop stop-opacity="1" stop-color="rgb(99.198914%, 64.698792%, 74.499512%)" offset="0.75"/><stop stop-opacity="1" stop-color="rgb(99.198914%, 64.698792%, 74.499512%)" offset="0.874812"/><stop stop-opacity="1" stop-color="rgb(99.198914%, 64.698792%, 74.499512%)" offset="1"/></linearGradient><clipPath id="dd6b3605c2"><rect x="0" width="47" y="0" height="46"/></clipPath></defs><g mask="url(#e4ad4a630e)"><g transform="matrix(1, 0, 0, 1, 14, 12)"><g clip-path="url(#dd6b3605c2)"><g clip-path="url(#929b808ee4)"><g clip-path="url(#389cdfc31f)"><g clip-path="url(#ac4602a63f)"><g clip-path="url(#09fc82c755)"><g clip-path="url(#e3c6eb8b75)"><path fill="url(#60f6b6e371)" d="M 23.316406 -4.539062 L -1.992188 20.769531 L 23.316406 46.078125 L 48.625 20.769531 Z M 23.316406 -4.539062 " fill-rule="nonzero"/></g></g></g></g></g><g clip-path="url(#668cb36a32)"><g clip-path="url(#9904933c78)"><g clip-path="url(#aa0ac25ae1)"><g clip-path="url(#93d5716b56)"><g clip-path="url(#6676521754)"><path fill="url(#15c2ba72a2)" d="M 23.234375 -5.429688 L -0.285156 18.09375 L 23.234375 41.613281 L 46.757812 18.09375 Z M 23.234375 -5.429688 " fill-rule="nonzero"/></g></g></g></g></g></g></g></g><g fill="#fdfcf8" fill-opacity="1"><g transform="translate(3.880579, 44.61197)"><g><path d="M 7.796875 0 L 7.796875 -0.117188 C 2.582031 -2.019531 3.429688 -11.746094 4.015625 -15.949219 C 4.488281 -19.308594 4.488281 -19.285156 4.957031 -22.550781 C 5.800781 -21.867188 5.941406 -20.71875 6.199219 -18.839844 C 6.460938 -16.535156 6.648438 -15.054688 7.023438 -12.425781 C 7.46875 -9.792969 7.890625 -0.328125 13.082031 -0.328125 C 15.503906 -0.328125 15.761719 -2.089844 15.761719 -3.148438 C 15.761719 -6.554688 13.53125 -14.539062 13.53125 -18.132812 C 13.53125 -19.824219 13.8125 -22.21875 15.550781 -22.21875 C 17.171875 -22.21875 17.148438 -19.636719 17.429688 -17.570312 C 18.34375 -10.875 18.910156 -6.859375 19.847656 0 L 23.371094 0 C 22.433594 -6.859375 21.9375 -10.851562 20.953125 -17.59375 C 20.527344 -20.503906 20.410156 -23.722656 17.289062 -23.722656 C 14.585938 -23.722656 12.964844 -21.65625 13.105469 -18.109375 C 13.246094 -14.75 14.257812 -10.546875 14.609375 -8.339844 C 15.148438 -4.886719 15.902344 -1.972656 14.023438 -1.972656 C 12.589844 -1.972656 11.601562 -5.355469 11.226562 -7.773438 C 10.476562 -12.683594 10.101562 -15.738281 9.324219 -21.1875 C 9.113281 -22.667969 8.339844 -23.488281 7.234375 -23.488281 L 2.160156 -23.488281 L 2.160156 -23.371094 C 2.628906 -23.324219 3.03125 -23.277344 3.382812 -23.207031 C 5.027344 -22.621094 4.367188 -20.953125 4.132812 -19.542969 L 0.46875 0 Z M 7.796875 0 "/></g></g></g><g fill="#fdfcf8" fill-opacity="1"><g transform="translate(27.720938, 44.61197)"><g><path d="M 1.644531 0 L 5.050781 0 L 5.050781 -11.367188 L 14.867188 -11.367188 L 14.867188 0 L 18.273438 0 L 18.273438 -23.488281 L 14.867188 -23.488281 L 14.867188 -11.746094 L 5.050781 -11.746094 L 5.050781 -23.488281 L 1.644531 -23.488281 Z M 1.644531 0 "/></g></g></g><g fill="#fdfcf8" fill-opacity="1"><g transform="translate(47.638795, 44.61197)"><g><path d="M 7.398438 -0.210938 C 6.601562 1.128906 5.730469 2.277344 4.863281 3.195312 L 5.050781 3.359375 C 5.050781 3.359375 5.683594 2.394531 7.773438 2.394531 C 9.984375 2.394531 11.0625 3.921875 14.046875 3.921875 C 14.9375 3.921875 16.089844 3.640625 16.605469 3.03125 L 17.992188 -1.527344 L 17.898438 -1.574219 C 16.371094 1.457031 12.988281 2.042969 8.199219 2.042969 C 8.199219 2.042969 6.835938 1.996094 6.105469 2.417969 C 6.695312 1.550781 7.257812 0.726562 7.773438 -0.09375 C 8.550781 0.117188 9.347656 0.234375 10.21875 0.234375 C 15.785156 0.234375 19.496094 -4.558594 19.496094 -11.746094 C 19.496094 -18.933594 15.785156 -23.722656 10.21875 -23.722656 C 4.628906 -23.722656 0.941406 -18.933594 0.941406 -11.746094 C 0.941406 -5.847656 3.429688 -1.550781 7.398438 -0.210938 Z M 4.605469 -11.769531 C 4.605469 -18.742188 6.835938 -23.394531 10.195312 -23.394531 C 11.957031 -22.925781 12.542969 -19.917969 12.542969 -18.484375 C 12.542969 -12.449219 10.546875 -5.753906 7.867188 -0.988281 C 5.847656 -2.628906 4.605469 -6.554688 4.605469 -11.769531 Z M 8.175781 -0.75 C 9.066406 -2.253906 9.867188 -3.828125 10.523438 -5.847656 C 12.074219 -10.570312 12.871094 -13.835938 12.871094 -18.367188 C 12.871094 -19.824219 12.566406 -22.148438 11.273438 -23.230469 C 14.046875 -22.3125 15.832031 -17.96875 15.832031 -11.769531 C 15.832031 -4.769531 13.578125 -0.117188 10.195312 -0.117188 C 9.464844 -0.117188 8.785156 -0.328125 8.175781 -0.75 Z M 8.175781 -0.75 "/></g></g></g><g fill="#fdfcf8" fill-opacity="1"><g transform="translate(68.073388, 44.61197)"><g><path d="M 1.175781 -1.808594 C 1.175781 -0.679688 2.089844 0.234375 3.21875 0.234375 C 4.320312 0.234375 5.238281 -0.679688 5.238281 -1.808594 C 5.238281 -2.914062 4.320312 -3.828125 3.21875 -3.828125 C 2.089844 -3.828125 1.175781 -2.914062 1.175781 -1.808594 Z M 1.175781 -1.808594 "/></g></g></g></svg>