<svg xmlns="http://www.w3.org/2000/svg" xmlns:xlink="http://www.w3.org/1999/xlink" width="200" zoomAndPan="magnify" viewBox="0 0 150 74.999997" height="100" preserveAspectRatio="xMidYMid meet" version="1.0"><defs><filter x="0%" y="0%" width="100%" height="100%" id="013ea522cc"><feColorMatrix values="0 0 0 0 1 0 0 0 0 1 0 0 0 0 1 0 0 0 1 0" color-interpolation-filters="sRGB"/></filter><g/><mask id="66a9903634"><g filter="url(#013ea522cc)"><rect x="-15" width="180" fill="#000000" y="-7.5" height="89.999996" fill-opacity="0.69"/></g></mask><clipPath id="9bfd23e9e9"><path d="M 8 10 L 58 10 L 58 35 L 8 35 Z M 8 10 " clip-rule="nonzero"/></clipPath><clipPath id="4e6a6be431"><path d="M 33.171875 -7.613281 L 65.46875 24.679688 L 32.941406 57.207031 L 0.644531 24.914062 Z M 33.171875 -7.613281 " clip-rule="nonzero"/></clipPath><clipPath id="200897ff25"><path d="M 33.171875 -7.613281 L 65.46875 24.679688 L 32.941406 57.207031 L 0.644531 24.914062 Z M 33.171875 -7.613281 " clip-rule="nonzero"/></clipPath><clipPath id="6cc68e105a"><path d="M 33.171875 -7.613281 L 65.46875 24.679688 L 32.941406 57.207031 L 0.644531 24.914062 Z M 33.171875 -7.613281 " clip-rule="nonzero"/></clipPath><clipPath id="f9a0456ec6"><path d="M 57.1875 31.386719 C 57.21875 32.890625 55.683594 33.949219 54.324219 33.332031 C 51.628906 32.117188 49.753906 29.417969 49.757812 26.265625 L 49.757812 24.617188 L 49.746094 23.054688 C 49.75 20.808594 47.914062 18.738281 45.675781 18.578125 C 43.09375 18.398438 40.941406 20.4375 40.941406 22.980469 L 40.945312 24.632812 L 40.945312 26.167969 C 40.941406 30.3125 37.742188 33.820312 33.601562 34.039062 C 29.136719 34.28125 25.441406 30.722656 25.453125 26.308594 L 25.453125 23.097656 C 25.457031 20.847656 23.621094 18.777344 21.382812 18.621094 C 18.800781 18.441406 16.648438 20.480469 16.648438 23.019531 L 16.644531 24.667969 L 16.644531 26.203125 C 16.640625 29.746094 14.292969 32.820312 11.027344 33.773438 C 10.050781 34.050781 9.066406 33.335938 9.039062 32.316406 L 8.898438 26.027344 C 8.933594 26.035156 9.699219 25.390625 9.734375 25.398438 C 11.84375 25.800781 12.5 24.808594 13.296875 23.984375 L 13.296875 22.996094 C 13.296875 21.238281 13.886719 19.617188 14.871094 18.3125 C 15.230469 16.574219 15.667969 14.75 16.136719 13.613281 C 17.265625 10.871094 22.828125 9.910156 24.453125 11.476562 C 25.457031 12.453125 26.296875 15.40625 27.210938 18.300781 C 28.128906 19.515625 28.699219 21.007812 28.777344 22.632812 C 28.851562 22.792969 28.929688 22.953125 29.007812 23.101562 C 30.726562 26.398438 32.480469 24.800781 36.011719 24.769531 C 36.660156 24.761719 37.183594 24.515625 37.597656 24.105469 L 37.597656 22.988281 C 37.597656 21.175781 38.222656 19.519531 39.261719 18.199219 C 39.3125 17.144531 39.304688 16.21875 39.320312 15.6875 C 39.378906 13.761719 43.28125 11.265625 45.464844 10.8125 C 47.648438 10.355469 51.296875 13.847656 52.082031 16.101562 C 52.480469 17.238281 52.410156 18.605469 52.519531 20.015625 C 52.847656 20.804688 53.050781 21.664062 53.089844 22.570312 C 53.320312 23.109375 53.640625 23.636719 54.085938 24.140625 C 54.980469 25.144531 56.023438 26.175781 57.066406 26.140625 Z M 57.1875 31.386719 " clip-rule="nonzero"/></clipPath><linearGradient x1="457.06833" gradientTransform="matrix(0.0697285, 0.0697285, -0.069846, 0.069846, 33.253134, -6.471976)" y1="-60.897623" x2="-47.346717" gradientUnits="userSpaceOnUse" y2="475.329247" id="64a1367c9f"><stop stop-opacity="1" stop-color="rgb(54.499817%, 79.998779%, 92.498779%)" offset="0"/><stop stop-opacity="1" stop-color="rgb(54.499817%, 79.998779%, 92.498779%)" offset="0.125"/><stop stop-opacity="1" stop-color="rgb(54.499817%, 79.998779%, 92.498779%)" offset="0.1875"/><stop stop-opacity="1" stop-color="rgb(54.499817%, 79.998779%, 92.498779%)" offset="0.21875"/><stop stop-opacity="1" stop-color="rgb(54.499817%, 79.998779%, 92.498779%)" offset="0.234375"/><stop stop-opacity="1" stop-color="rgb(54.499817%, 79.998779%, 92.498779%)" offset="0.242188"/><stop stop-opacity="1" stop-color="rgb(54.75769%, 79.86145%, 92.353821%)" offset="0.246094"/><stop stop-opacity="1" stop-color="rgb(55.01709%, 79.724121%, 92.210388%)" offset="0.25"/><stop stop-opacity="1" stop-color="rgb(55.28717%, 79.580688%, 92.059326%)" offset="0.253906"/><stop stop-opacity="1" stop-color="rgb(55.557251%, 79.437256%, 91.908264%)" offset="0.257812"/><stop stop-opacity="1" stop-color="rgb(55.827332%, 79.293823%, 91.757202%)" offset="0.261719"/><stop stop-opacity="1" stop-color="rgb(56.097412%, 79.150391%, 91.60614%)" offset="0.265625"/><stop stop-opacity="1" stop-color="rgb(56.367493%, 79.006958%, 91.455078%)" offset="0.269531"/><stop stop-opacity="1" stop-color="rgb(56.639099%, 78.863525%, 91.304016%)" offset="0.273438"/><stop stop-opacity="1" stop-color="rgb(56.90918%, 78.720093%, 91.152954%)" offset="0.277344"/><stop stop-opacity="1" stop-color="rgb(57.17926%, 78.57666%, 91.001892%)" offset="0.28125"/><stop stop-opacity="1" stop-color="rgb(57.449341%, 78.433228%, 90.85083%)" offset="0.285156"/><stop stop-opacity="1" stop-color="rgb(57.720947%, 78.289795%, 90.699768%)" offset="0.289062"/><stop stop-opacity="1" stop-color="rgb(57.991028%, 78.146362%, 90.548706%)" offset="0.292969"/><stop stop-opacity="1" stop-color="rgb(58.261108%, 78.00293%, 90.397644%)" offset="0.296875"/><stop stop-opacity="1" stop-color="rgb(58.531189%, 77.859497%, 90.246582%)" offset="0.300781"/><stop stop-opacity="1" stop-color="rgb(58.802795%, 77.716064%, 90.09552%)" offset="0.304687"/><stop stop-opacity="1" stop-color="rgb(59.072876%, 77.572632%, 89.944458%)" offset="0.308594"/><stop stop-opacity="1" stop-color="rgb(59.342957%, 77.429199%, 89.793396%)" offset="0.3125"/><stop stop-opacity="1" stop-color="rgb(59.613037%, 77.285767%, 89.642334%)" offset="0.316406"/><stop stop-opacity="1" stop-color="rgb(59.884644%, 77.142334%, 89.491272%)" offset="0.320312"/><stop stop-opacity="1" stop-color="rgb(60.154724%, 76.998901%, 89.34021%)" offset="0.324219"/><stop stop-opacity="1" stop-color="rgb(60.424805%, 76.855469%, 89.189148%)" offset="0.328125"/><stop stop-opacity="1" stop-color="rgb(60.694885%, 76.712036%, 89.038086%)" offset="0.332031"/><stop stop-opacity="1" stop-color="rgb(60.966492%, 76.568604%, 88.887024%)" offset="0.335938"/><stop stop-opacity="1" stop-color="rgb(61.236572%, 76.425171%, 88.735962%)" offset="0.339844"/><stop stop-opacity="1" stop-color="rgb(61.506653%, 76.281738%, 88.5849%)" offset="0.34375"/><stop stop-opacity="1" stop-color="rgb(61.776733%, 76.13678%, 88.433838%)" offset="0.347656"/><stop stop-opacity="1" stop-color="rgb(62.046814%, 75.993347%, 88.282776%)" offset="0.351562"/><stop stop-opacity="1" stop-color="rgb(62.316895%, 75.849915%, 88.131714%)" offset="0.355469"/><stop stop-opacity="1" stop-color="rgb(62.588501%, 75.706482%, 87.980652%)" offset="0.359375"/><stop stop-opacity="1" stop-color="rgb(62.858582%, 75.563049%, 87.82959%)" offset="0.363281"/><stop stop-opacity="1" stop-color="rgb(63.128662%, 75.419617%, 87.678528%)" offset="0.367188"/><stop stop-opacity="1" stop-color="rgb(63.398743%, 75.276184%, 87.527466%)" offset="0.371094"/><stop stop-opacity="1" stop-color="rgb(63.670349%, 75.132751%, 87.376404%)" offset="0.375"/><stop stop-opacity="1" stop-color="rgb(63.94043%, 74.989319%, 87.225342%)" offset="0.378906"/><stop stop-opacity="1" stop-color="rgb(64.21051%, 74.845886%, 87.07428%)" offset="0.382812"/><stop stop-opacity="1" stop-color="rgb(64.480591%, 74.702454%, 86.923218%)" offset="0.386719"/><stop stop-opacity="1" stop-color="rgb(64.752197%, 74.559021%, 86.772156%)" offset="0.390625"/><stop stop-opacity="1" stop-color="rgb(65.022278%, 74.415588%, 86.619568%)" offset="0.394531"/><stop stop-opacity="1" stop-color="rgb(65.292358%, 74.272156%, 86.468506%)" offset="0.398438"/><stop stop-opacity="1" stop-color="rgb(65.562439%, 74.128723%, 86.317444%)" offset="0.402344"/><stop stop-opacity="1" stop-color="rgb(65.834045%, 73.985291%, 86.166382%)" offset="0.40625"/><stop stop-opacity="1" stop-color="rgb(66.104126%, 73.841858%, 86.01532%)" offset="0.410156"/><stop stop-opacity="1" stop-color="rgb(66.374207%, 73.698425%, 85.864258%)" offset="0.414062"/><stop stop-opacity="1" stop-color="rgb(66.644287%, 73.554993%, 85.713196%)" offset="0.417969"/><stop stop-opacity="1" stop-color="rgb(66.915894%, 73.41156%, 85.562134%)" offset="0.421875"/><stop stop-opacity="1" stop-color="rgb(67.185974%, 73.268127%, 85.411072%)" offset="0.425781"/><stop stop-opacity="1" stop-color="rgb(67.456055%, 73.124695%, 85.26001%)" offset="0.429688"/><stop stop-opacity="1" stop-color="rgb(67.726135%, 72.981262%, 85.108948%)" offset="0.433594"/><stop stop-opacity="1" stop-color="rgb(67.996216%, 72.83783%, 84.957886%)" offset="0.4375"/><stop stop-opacity="1" stop-color="rgb(68.266296%, 72.694397%, 84.806824%)" offset="0.441406"/><stop stop-opacity="1" stop-color="rgb(68.537903%, 72.550964%, 84.655762%)" offset="0.445312"/><stop stop-opacity="1" stop-color="rgb(68.807983%, 72.406006%, 84.5047%)" offset="0.449219"/><stop stop-opacity="1" stop-color="rgb(69.078064%, 72.262573%, 84.353638%)" offset="0.453125"/><stop stop-opacity="1" stop-color="rgb(69.348145%, 72.119141%, 84.202576%)" offset="0.457031"/><stop stop-opacity="1" stop-color="rgb(69.619751%, 71.975708%, 84.051514%)" offset="0.460938"/><stop stop-opacity="1" stop-color="rgb(69.889832%, 71.832275%, 83.900452%)" offset="0.464844"/><stop stop-opacity="1" stop-color="rgb(70.159912%, 71.688843%, 83.74939%)" offset="0.46875"/><stop stop-opacity="1" stop-color="rgb(70.429993%, 71.54541%, 83.598328%)" offset="0.472656"/><stop stop-opacity="1" stop-color="rgb(70.701599%, 71.401978%, 83.447266%)" offset="0.476562"/><stop stop-opacity="1" stop-color="rgb(70.97168%, 71.258545%, 83.296204%)" offset="0.480469"/><stop stop-opacity="1" stop-color="rgb(71.24176%, 71.115112%, 83.145142%)" offset="0.484375"/><stop stop-opacity="1" stop-color="rgb(71.511841%, 70.97168%, 82.99408%)" offset="0.488281"/><stop stop-opacity="1" stop-color="rgb(71.783447%, 70.828247%, 82.843018%)" offset="0.492188"/><stop stop-opacity="1" stop-color="rgb(72.053528%, 70.684814%, 82.691956%)" offset="0.496094"/><stop stop-opacity="1" stop-color="rgb(72.323608%, 70.541382%, 82.540894%)" offset="0.5"/><stop stop-opacity="1" stop-color="rgb(72.593689%, 70.397949%, 82.389832%)" offset="0.503906"/><stop stop-opacity="1" stop-color="rgb(72.865295%, 70.254517%, 82.23877%)" offset="0.507812"/><stop stop-opacity="1" stop-color="rgb(73.135376%, 70.111084%, 82.087708%)" offset="0.511719"/><stop stop-opacity="1" stop-color="rgb(73.405457%, 69.967651%, 81.936646%)" offset="0.515625"/><stop stop-opacity="1" stop-color="rgb(73.675537%, 69.824219%, 81.785583%)" offset="0.519531"/><stop stop-opacity="1" stop-color="rgb(73.945618%, 69.680786%, 81.634521%)" offset="0.523438"/><stop stop-opacity="1" stop-color="rgb(74.215698%, 69.537354%, 81.483459%)" offset="0.527344"/><stop stop-opacity="1" stop-color="rgb(74.487305%, 69.393921%, 81.332397%)" offset="0.53125"/><stop stop-opacity="1" stop-color="rgb(74.757385%, 69.250488%, 81.181335%)" offset="0.535156"/><stop stop-opacity="1" stop-color="rgb(75.027466%, 69.107056%, 81.030273%)" offset="0.539062"/><stop stop-opacity="1" stop-color="rgb(75.297546%, 68.963623%, 80.879211%)" offset="0.542969"/><stop stop-opacity="1" stop-color="rgb(75.569153%, 68.82019%, 80.728149%)" offset="0.546875"/><stop stop-opacity="1" stop-color="rgb(75.839233%, 68.675232%, 80.577087%)" offset="0.550781"/><stop stop-opacity="1" stop-color="rgb(76.109314%, 68.531799%, 80.426025%)" offset="0.554688"/><stop stop-opacity="1" stop-color="rgb(76.379395%, 68.388367%, 80.274963%)" offset="0.558594"/><stop stop-opacity="1" stop-color="rgb(76.651001%, 68.244934%, 80.123901%)" offset="0.5625"/><stop stop-opacity="1" stop-color="rgb(76.921082%, 68.101501%, 79.972839%)" offset="0.566406"/><stop stop-opacity="1" stop-color="rgb(77.191162%, 67.958069%, 79.821777%)" offset="0.570312"/><stop stop-opacity="1" stop-color="rgb(77.461243%, 67.814636%, 79.670715%)" offset="0.574219"/><stop stop-opacity="1" stop-color="rgb(77.732849%, 67.671204%, 79.519653%)" offset="0.578125"/><stop stop-opacity="1" stop-color="rgb(78.00293%, 67.527771%, 79.368591%)" offset="0.582031"/><stop stop-opacity="1" stop-color="rgb(78.27301%, 67.384338%, 79.217529%)" offset="0.585938"/><stop stop-opacity="1" stop-color="rgb(78.543091%, 67.240906%, 79.066467%)" offset="0.589844"/><stop stop-opacity="1" stop-color="rgb(78.814697%, 67.097473%, 78.915405%)" offset="0.59375"/><stop stop-opacity="1" stop-color="rgb(79.084778%, 66.954041%, 78.764343%)" offset="0.597656"/><stop stop-opacity="1" stop-color="rgb(79.354858%, 66.810608%, 78.613281%)" offset="0.601562"/><stop stop-opacity="1" stop-color="rgb(79.624939%, 66.667175%, 78.462219%)" offset="0.605469"/><stop stop-opacity="1" stop-color="rgb(79.89502%, 66.523743%, 78.311157%)" offset="0.609375"/><stop stop-opacity="1" stop-color="rgb(80.1651%, 66.38031%, 78.160095%)" offset="0.613281"/><stop stop-opacity="1" stop-color="rgb(80.436707%, 66.236877%, 78.009033%)" offset="0.617188"/><stop stop-opacity="1" stop-color="rgb(80.706787%, 66.093445%, 77.857971%)" offset="0.621094"/><stop stop-opacity="1" stop-color="rgb(80.976868%, 65.950012%, 77.706909%)" offset="0.625"/><stop stop-opacity="1" stop-color="rgb(81.246948%, 65.80658%, 77.555847%)" offset="0.628906"/><stop stop-opacity="1" stop-color="rgb(81.518555%, 65.663147%, 77.404785%)" offset="0.632812"/><stop stop-opacity="1" stop-color="rgb(81.788635%, 65.519714%, 77.253723%)" offset="0.636719"/><stop stop-opacity="1" stop-color="rgb(82.058716%, 65.376282%, 77.102661%)" offset="0.640625"/><stop stop-opacity="1" stop-color="rgb(82.328796%, 65.232849%, 76.951599%)" offset="0.644531"/><stop stop-opacity="1" stop-color="rgb(82.600403%, 65.089417%, 76.800537%)" offset="0.648437"/><stop stop-opacity="1" stop-color="rgb(82.870483%, 64.944458%, 76.649475%)" offset="0.652344"/><stop stop-opacity="1" stop-color="rgb(83.140564%, 64.801025%, 76.498413%)" offset="0.65625"/><stop stop-opacity="1" stop-color="rgb(83.410645%, 64.657593%, 76.347351%)" offset="0.660156"/><stop stop-opacity="1" stop-color="rgb(83.682251%, 64.51416%, 76.196289%)" offset="0.664062"/><stop stop-opacity="1" stop-color="rgb(83.952332%, 64.370728%, 76.045227%)" offset="0.667969"/><stop stop-opacity="1" stop-color="rgb(84.222412%, 64.227295%, 75.894165%)" offset="0.671875"/><stop stop-opacity="1" stop-color="rgb(84.492493%, 64.083862%, 75.743103%)" offset="0.675781"/><stop stop-opacity="1" stop-color="rgb(84.762573%, 63.94043%, 75.592041%)" offset="0.679687"/><stop stop-opacity="1" stop-color="rgb(85.032654%, 63.796997%, 75.440979%)" offset="0.683594"/><stop stop-opacity="1" stop-color="rgb(85.30426%, 63.653564%, 75.289917%)" offset="0.6875"/><stop stop-opacity="1" stop-color="rgb(85.574341%, 63.510132%, 75.138855%)" offset="0.691406"/><stop stop-opacity="1" stop-color="rgb(85.844421%, 63.366699%, 74.987793%)" offset="0.695312"/><stop stop-opacity="1" stop-color="rgb(86.114502%, 63.223267%, 74.836731%)" offset="0.699219"/><stop stop-opacity="1" stop-color="rgb(86.386108%, 63.079834%, 74.685669%)" offset="0.703125"/><stop stop-opacity="1" stop-color="rgb(86.656189%, 62.936401%, 74.534607%)" offset="0.707031"/><stop stop-opacity="1" stop-color="rgb(86.92627%, 62.792969%, 74.383545%)" offset="0.710937"/><stop stop-opacity="1" stop-color="rgb(87.19635%, 62.649536%, 74.232483%)" offset="0.714844"/><stop stop-opacity="1" stop-color="rgb(87.467957%, 62.506104%, 74.081421%)" offset="0.71875"/><stop stop-opacity="1" stop-color="rgb(87.738037%, 62.362671%, 73.930359%)" offset="0.722656"/><stop stop-opacity="1" stop-color="rgb(88.008118%, 62.219238%, 73.779297%)" offset="0.726562"/><stop stop-opacity="1" stop-color="rgb(88.278198%, 62.075806%, 73.626709%)" offset="0.730469"/><stop stop-opacity="1" stop-color="rgb(88.549805%, 61.932373%, 73.475647%)" offset="0.734375"/><stop stop-opacity="1" stop-color="rgb(88.819885%, 61.78894%, 73.324585%)" offset="0.738281"/><stop stop-opacity="1" stop-color="rgb(89.089966%, 61.645508%, 73.173523%)" offset="0.742187"/><stop stop-opacity="1" stop-color="rgb(89.360046%, 61.502075%, 73.022461%)" offset="0.746094"/><stop stop-opacity="1" stop-color="rgb(89.631653%, 61.358643%, 72.871399%)" offset="0.75"/><stop stop-opacity="1" stop-color="rgb(89.901733%, 61.213684%, 72.720337%)" offset="0.753906"/><stop stop-opacity="1" stop-color="rgb(90.171814%, 61.070251%, 72.569275%)" offset="0.757813"/><stop stop-opacity="1" stop-color="rgb(90.441895%, 60.926819%, 72.418213%)" offset="0.761719"/><stop stop-opacity="1" stop-color="rgb(90.711975%, 60.783386%, 72.267151%)" offset="0.765625"/><stop stop-opacity="1" stop-color="rgb(90.982056%, 60.639954%, 72.116089%)" offset="0.769531"/><stop stop-opacity="1" stop-color="rgb(91.253662%, 60.496521%, 71.965027%)" offset="0.773438"/><stop stop-opacity="1" stop-color="rgb(91.523743%, 60.353088%, 71.813965%)" offset="0.777344"/><stop stop-opacity="1" stop-color="rgb(91.793823%, 60.209656%, 71.662903%)" offset="0.78125"/><stop stop-opacity="1" stop-color="rgb(92.063904%, 60.066223%, 71.511841%)" offset="0.785156"/><stop stop-opacity="1" stop-color="rgb(92.33551%, 59.922791%, 71.360779%)" offset="0.789063"/><stop stop-opacity="1" stop-color="rgb(92.605591%, 59.779358%, 71.209717%)" offset="0.792969"/><stop stop-opacity="1" stop-color="rgb(92.875671%, 59.635925%, 71.058655%)" offset="0.796875"/><stop stop-opacity="1" stop-color="rgb(93.145752%, 59.492493%, 70.907593%)" offset="0.800781"/><stop stop-opacity="1" stop-color="rgb(93.417358%, 59.34906%, 70.756531%)" offset="0.804688"/><stop stop-opacity="1" stop-color="rgb(93.557739%, 59.274292%, 70.677185%)" offset="0.8125"/><stop stop-opacity="1" stop-color="rgb(93.699646%, 59.199524%, 70.599365%)" offset="0.875"/><stop stop-opacity="1" stop-color="rgb(93.699646%, 59.199524%, 70.599365%)" offset="1"/></linearGradient><clipPath id="00b666a8fd"><path d="M 8 8 L 58 8 L 58 28 L 8 28 Z M 8 8 " clip-rule="nonzero"/></clipPath><clipPath id="ce28d0e9a3"><path d="M 33.171875 -7.613281 L 65.46875 24.679688 L 32.941406 57.207031 L 0.644531 24.914062 Z M 33.171875 -7.613281 " clip-rule="nonzero"/></clipPath><clipPath id="25aab463cd"><path d="M 33.171875 -7.613281 L 65.46875 24.679688 L 32.941406 57.207031 L 0.644531 24.914062 Z M 33.171875 -7.613281 " clip-rule="nonzero"/></clipPath><clipPath id="191aca5dfa"><path d="M 33.171875 -7.613281 L 65.46875 24.679688 L 32.941406 57.207031 L 0.644531 24.914062 Z M 33.171875 -7.613281 " clip-rule="nonzero"/></clipPath><clipPath id="6858c14298"><path d="M 57.058594 26.035156 C 57.070312 26.929688 56.226562 27.59375 55.375 27.34375 C 52.128906 26.417969 49.753906 23.4375 49.757812 19.894531 L 49.757812 16.710938 C 49.761719 14.101562 47.628906 12.007812 45.039062 12.199219 C 42.761719 12.371094 40.960938 14.269531 40.960938 16.601562 L 40.957031 18.246094 L 40.957031 19.742188 C 40.953125 24.222656 37.214844 27.902344 32.734375 27.640625 C 28.675781 27.40625 25.453125 24.03125 25.457031 19.914062 L 25.449219 18.273438 L 25.453125 16.738281 C 25.453125 14.128906 23.320312 12.035156 20.730469 12.226562 C 18.457031 12.398438 16.652344 14.296875 16.652344 16.628906 L 16.652344 18.273438 L 16.644531 19.804688 C 16.640625 23.53125 14.054688 26.714844 10.550781 27.5 C 9.847656 27.617188 8.933594 27.429688 8.898438 26.027344 C 8.816406 25.105469 9.457031 24.4375 10.140625 24.15625 C 10.316406 24.105469 10.484375 24.039062 10.644531 23.972656 C 12.203125 23.296875 13.292969 21.746094 13.285156 19.9375 L 13.300781 18.277344 L 13.300781 16.785156 C 13.300781 12.296875 17.042969 8.621094 21.523438 8.882812 C 25.585938 9.117188 28.804688 12.492188 28.800781 16.609375 L 28.800781 19.792969 C 28.796875 22.402344 30.929688 24.496094 33.519531 24.304688 C 35.796875 24.132812 37.597656 22.234375 37.601562 19.902344 L 37.601562 16.761719 C 37.613281 12.277344 41.34375 8.601562 45.824219 8.863281 C 49.882812 9.097656 53.105469 12.472656 53.101562 16.589844 L 53.101562 18.238281 L 53.097656 19.800781 C 53.097656 21.878906 53.90625 23.847656 55.71875 24.363281 C 56.488281 24.585938 57.039062 25.246094 57.058594 26.035156 Z M 57.058594 26.035156 " clip-rule="nonzero"/></clipPath><linearGradient x1="239.361912" gradientTransform="matrix(0.0697285, 0.0697285, -0.069846, 0.069846, 33.253134, -6.471976)" y1="-88.011809" x2="161.965452" gradientUnits="userSpaceOnUse" y2="453.743245" id="c4ac2ef8c4"><stop stop-opacity="1" stop-color="rgb(100%, 85.499573%, 91.398621%)" offset="0"/><stop stop-opacity="1" stop-color="rgb(100%, 85.499573%, 91.398621%)" offset="0.125188"/><stop stop-opacity="1" stop-color="rgb(100%, 85.499573%, 91.398621%)" offset="0.25"/><stop stop-opacity="1" stop-color="rgb(100%, 85.499573%, 91.398621%)" offset="0.375"/><stop stop-opacity="1" stop-color="rgb(100%, 85.499573%, 91.398621%)" offset="0.40625"/><stop stop-opacity="1" stop-color="rgb(100%, 85.499573%, 91.398621%)" offset="0.421875"/><stop stop-opacity="1" stop-color="rgb(99.986267%, 85.176086%, 91.136169%)" offset="0.425781"/><stop stop-opacity="1" stop-color="rgb(99.97406%, 84.854126%, 90.875244%)" offset="0.429687"/><stop stop-opacity="1" stop-color="rgb(99.961853%, 84.524536%, 90.608215%)" offset="0.433594"/><stop stop-opacity="1" stop-color="rgb(99.949646%, 84.196472%, 90.341187%)" offset="0.4375"/><stop stop-opacity="1" stop-color="rgb(99.935913%, 83.866882%, 90.074158%)" offset="0.441406"/><stop stop-opacity="1" stop-color="rgb(99.923706%, 83.538818%, 89.807129%)" offset="0.445312"/><stop stop-opacity="1" stop-color="rgb(99.911499%, 83.209229%, 89.5401%)" offset="0.449219"/><stop stop-opacity="1" stop-color="rgb(99.899292%, 82.881165%, 89.273071%)" offset="0.453125"/><stop stop-opacity="1" stop-color="rgb(99.885559%, 82.551575%, 89.004517%)" offset="0.457031"/><stop stop-opacity="1" stop-color="rgb(99.873352%, 82.223511%, 88.737488%)" offset="0.460938"/><stop stop-opacity="1" stop-color="rgb(99.859619%, 81.893921%, 88.470459%)" offset="0.464844"/><stop stop-opacity="1" stop-color="rgb(99.847412%, 81.565857%, 88.20343%)" offset="0.46875"/><stop stop-opacity="1" stop-color="rgb(99.835205%, 81.237793%, 87.936401%)" offset="0.472656"/><stop stop-opacity="1" stop-color="rgb(99.822998%, 80.909729%, 87.669373%)" offset="0.476562"/><stop stop-opacity="1" stop-color="rgb(99.809265%, 80.580139%, 87.402344%)" offset="0.480469"/><stop stop-opacity="1" stop-color="rgb(99.797058%, 80.252075%, 87.135315%)" offset="0.484375"/><stop stop-opacity="1" stop-color="rgb(99.784851%, 79.922485%, 86.868286%)" offset="0.488281"/><stop stop-opacity="1" stop-color="rgb(99.772644%, 79.594421%, 86.601257%)" offset="0.492188"/><stop stop-opacity="1" stop-color="rgb(99.758911%, 79.264832%, 86.334229%)" offset="0.496094"/><stop stop-opacity="1" stop-color="rgb(99.746704%, 78.936768%, 86.0672%)" offset="0.5"/><stop stop-opacity="1" stop-color="rgb(99.734497%, 78.607178%, 85.800171%)" offset="0.503906"/><stop stop-opacity="1" stop-color="rgb(99.72229%, 78.279114%, 85.533142%)" offset="0.507812"/><stop stop-opacity="1" stop-color="rgb(99.708557%, 77.949524%, 85.266113%)" offset="0.511719"/><stop stop-opacity="1" stop-color="rgb(99.69635%, 77.62146%, 84.999084%)" offset="0.515625"/><stop stop-opacity="1" stop-color="rgb(99.682617%, 77.29187%, 84.732056%)" offset="0.519531"/><stop stop-opacity="1" stop-color="rgb(99.67041%, 76.963806%, 84.465027%)" offset="0.523438"/><stop stop-opacity="1" stop-color="rgb(99.658203%, 76.634216%, 84.197998%)" offset="0.527344"/><stop stop-opacity="1" stop-color="rgb(99.645996%, 76.306152%, 83.930969%)" offset="0.53125"/><stop stop-opacity="1" stop-color="rgb(99.632263%, 75.978088%, 83.66394%)" offset="0.535156"/><stop stop-opacity="1" stop-color="rgb(99.620056%, 75.650024%, 83.396912%)" offset="0.539062"/><stop stop-opacity="1" stop-color="rgb(99.607849%, 75.320435%, 83.128357%)" offset="0.542969"/><stop stop-opacity="1" stop-color="rgb(99.595642%, 74.992371%, 82.861328%)" offset="0.546875"/><stop stop-opacity="1" stop-color="rgb(99.581909%, 74.662781%, 82.594299%)" offset="0.550781"/><stop stop-opacity="1" stop-color="rgb(99.569702%, 74.334717%, 82.327271%)" offset="0.554687"/><stop stop-opacity="1" stop-color="rgb(99.557495%, 74.005127%, 82.060242%)" offset="0.558594"/><stop stop-opacity="1" stop-color="rgb(99.545288%, 73.677063%, 81.793213%)" offset="0.5625"/><stop stop-opacity="1" stop-color="rgb(99.531555%, 73.347473%, 81.526184%)" offset="0.566406"/><stop stop-opacity="1" stop-color="rgb(99.519348%, 73.019409%, 81.259155%)" offset="0.570312"/><stop stop-opacity="1" stop-color="rgb(99.505615%, 72.689819%, 80.992126%)" offset="0.574219"/><stop stop-opacity="1" stop-color="rgb(99.493408%, 72.361755%, 80.725098%)" offset="0.578125"/><stop stop-opacity="1" stop-color="rgb(99.481201%, 72.032166%, 80.458069%)" offset="0.582031"/><stop stop-opacity="1" stop-color="rgb(99.468994%, 71.704102%, 80.19104%)" offset="0.585938"/><stop stop-opacity="1" stop-color="rgb(99.455261%, 71.374512%, 79.924011%)" offset="0.589844"/><stop stop-opacity="1" stop-color="rgb(99.443054%, 71.046448%, 79.656982%)" offset="0.59375"/><stop stop-opacity="1" stop-color="rgb(99.430847%, 70.716858%, 79.389954%)" offset="0.597656"/><stop stop-opacity="1" stop-color="rgb(99.41864%, 70.388794%, 79.122925%)" offset="0.601562"/><stop stop-opacity="1" stop-color="rgb(99.404907%, 70.06073%, 78.855896%)" offset="0.605469"/><stop stop-opacity="1" stop-color="rgb(99.3927%, 69.732666%, 78.588867%)" offset="0.609375"/><stop stop-opacity="1" stop-color="rgb(99.378967%, 69.403076%, 78.321838%)" offset="0.613281"/><stop stop-opacity="1" stop-color="rgb(99.36676%, 69.075012%, 78.05481%)" offset="0.617188"/><stop stop-opacity="1" stop-color="rgb(99.354553%, 68.745422%, 77.786255%)" offset="0.621094"/><stop stop-opacity="1" stop-color="rgb(99.342346%, 68.417358%, 77.519226%)" offset="0.625"/><stop stop-opacity="1" stop-color="rgb(99.328613%, 68.087769%, 77.252197%)" offset="0.628906"/><stop stop-opacity="1" stop-color="rgb(99.316406%, 67.759705%, 76.985168%)" offset="0.632812"/><stop stop-opacity="1" stop-color="rgb(99.304199%, 67.430115%, 76.71814%)" offset="0.636719"/><stop stop-opacity="1" stop-color="rgb(99.291992%, 67.102051%, 76.451111%)" offset="0.640625"/><stop stop-opacity="1" stop-color="rgb(99.278259%, 66.772461%, 76.184082%)" offset="0.644531"/><stop stop-opacity="1" stop-color="rgb(99.266052%, 66.444397%, 75.917053%)" offset="0.648438"/><stop stop-opacity="1" stop-color="rgb(99.253845%, 66.114807%, 75.650024%)" offset="0.652344"/><stop stop-opacity="1" stop-color="rgb(99.241638%, 65.786743%, 75.382996%)" offset="0.65625"/><stop stop-opacity="1" stop-color="rgb(99.227905%, 65.457153%, 75.115967%)" offset="0.660156"/><stop stop-opacity="1" stop-color="rgb(99.215698%, 65.129089%, 74.848938%)" offset="0.664062"/><stop stop-opacity="1" stop-color="rgb(99.206543%, 64.91394%, 74.673462%)" offset="0.667969"/><stop stop-opacity="1" stop-color="rgb(99.198914%, 64.698792%, 74.499512%)" offset="0.671875"/><stop stop-opacity="1" stop-color="rgb(99.198914%, 64.698792%, 74.499512%)" offset="0.6875"/><stop stop-opacity="1" stop-color="rgb(99.198914%, 64.698792%, 74.499512%)" offset="0.75"/><stop stop-opacity="1" stop-color="rgb(99.198914%, 64.698792%, 74.499512%)" offset="0.874812"/><stop stop-opacity="1" stop-color="rgb(99.198914%, 64.698792%, 74.499512%)" offset="1"/></linearGradient><clipPath id="a90228bd59"><rect x="0" width="66" y="0" height="58"/></clipPath></defs><g mask="url(#66a9903634)"><g transform="matrix(1, 0, 0, 1, 40, -0.000000000000001893)"><g clip-path="url(#a90228bd59)"><g clip-path="url(#9bfd23e9e9)"><g clip-path="url(#4e6a6be431)"><g clip-path="url(#200897ff25)"><g clip-path="url(#6cc68e105a)"><g clip-path="url(#f9a0456ec6)"><path fill="url(#64a1367c9f)" d="M 33.058594 -14.253906 L -3.289062 22.09375 L 33.058594 58.441406 L 69.40625 22.09375 Z M 33.058594 -14.253906 " fill-rule="nonzero"/></g></g></g></g></g><g clip-path="url(#00b666a8fd)"><g clip-path="url(#ce28d0e9a3)"><g clip-path="url(#25aab463cd)"><g clip-path="url(#191aca5dfa)"><g clip-path="url(#6858c14298)"><path fill="url(#c4ac2ef8c4)" d="M 32.941406 -15.527344 L -0.835938 18.253906 L 32.941406 52.03125 L 66.722656 18.253906 Z M 32.941406 -15.527344 " fill-rule="nonzero"/></g></g></g></g></g></g></g></g><g fill="#fdfcf8" fill-opacity="1"><g transform="translate(25.037236, 39.101631)"><g><path d="M 11.199219 0 L 11.199219 -0.167969 C 3.710938 -2.902344 4.925781 -16.867188 5.769531 -22.902344 C 6.441406 -27.726562 6.441406 -27.695312 7.117188 -32.382812 C 8.332031 -31.402344 8.535156 -29.75 8.90625 -27.050781 C 9.277344 -23.746094 9.546875 -21.621094 10.085938 -17.84375 C 10.726562 -14.066406 11.332031 -0.472656 18.789062 -0.472656 C 22.261719 -0.472656 22.632812 -3.003906 22.632812 -4.519531 C 22.632812 -9.410156 19.429688 -20.878906 19.429688 -26.039062 C 19.429688 -28.46875 19.835938 -31.910156 22.332031 -31.910156 C 24.65625 -31.910156 24.625 -28.199219 25.027344 -25.230469 C 26.34375 -15.617188 27.152344 -9.847656 28.503906 0 L 33.5625 0 C 32.214844 -9.847656 31.503906 -15.582031 30.089844 -25.265625 C 29.480469 -29.449219 29.3125 -34.070312 24.828125 -34.070312 C 20.949219 -34.070312 18.621094 -31.101562 18.820312 -26.007812 C 19.023438 -21.183594 20.476562 -15.144531 20.980469 -11.976562 C 21.757812 -7.015625 22.835938 -2.832031 20.136719 -2.832031 C 18.082031 -2.832031 16.664062 -7.691406 16.125 -11.164062 C 15.042969 -18.214844 14.503906 -22.601562 13.390625 -30.425781 C 13.085938 -32.550781 11.976562 -33.730469 10.390625 -33.730469 L 3.101562 -33.730469 L 3.101562 -33.5625 C 3.777344 -33.496094 4.351562 -33.429688 4.855469 -33.328125 C 7.21875 -32.484375 6.273438 -30.089844 5.9375 -28.066406 L 0.675781 0 Z M 11.199219 0 "/></g></g></g><g fill="#fdfcf8" fill-opacity="1"><g transform="translate(59.273522, 39.101631)"><g><path d="M 2.359375 0 L 7.253906 0 L 7.253906 -16.324219 L 21.351562 -16.324219 L 21.351562 0 L 26.242188 0 L 26.242188 -33.730469 L 21.351562 -33.730469 L 21.351562 -16.867188 L 7.253906 -16.867188 L 7.253906 -33.730469 L 2.359375 -33.730469 Z M 2.359375 0 "/></g></g></g><g fill="#fdfcf8" fill-opacity="1"><g transform="translate(87.876843, 39.101631)"><g><path d="M 10.625 -0.304688 C 9.480469 1.617188 8.230469 3.273438 6.984375 4.585938 L 7.253906 4.824219 C 7.253906 4.824219 8.164062 3.441406 11.164062 3.441406 C 14.335938 3.441406 15.886719 5.632812 20.171875 5.632812 C 21.453125 5.632812 23.105469 5.226562 23.847656 4.351562 L 25.839844 -2.191406 L 25.703125 -2.261719 C 23.511719 2.089844 18.652344 2.933594 11.773438 2.933594 C 11.773438 2.933594 9.816406 2.867188 8.769531 3.472656 C 9.613281 2.226562 10.421875 1.046875 11.164062 -0.136719 C 12.277344 0.167969 13.425781 0.335938 14.671875 0.335938 C 22.667969 0.335938 27.996094 -6.542969 27.996094 -16.867188 C 27.996094 -27.1875 22.667969 -34.070312 14.671875 -34.070312 C 6.644531 -34.070312 1.347656 -27.1875 1.347656 -16.867188 C 1.347656 -8.398438 4.925781 -2.226562 10.625 -0.304688 Z M 6.613281 -16.898438 C 6.613281 -26.917969 9.816406 -33.597656 14.640625 -33.597656 C 17.167969 -32.921875 18.011719 -28.605469 18.011719 -26.546875 C 18.011719 -17.878906 15.144531 -8.265625 11.300781 -1.417969 C 8.398438 -3.777344 6.613281 -9.410156 6.613281 -16.898438 Z M 11.738281 -1.078125 C 13.019531 -3.238281 14.167969 -5.5 15.113281 -8.398438 C 17.339844 -15.179688 18.484375 -19.867188 18.484375 -26.378906 C 18.484375 -28.46875 18.046875 -31.808594 16.191406 -33.359375 C 20.171875 -32.046875 22.734375 -25.804688 22.734375 -16.898438 C 22.734375 -6.847656 19.496094 -0.167969 14.640625 -0.167969 C 13.59375 -0.167969 12.617188 -0.472656 11.738281 -1.078125 Z M 11.738281 -1.078125 "/></g></g></g><g fill="#fdfcf8" fill-opacity="1"><g transform="translate(117.22223, 39.101631)"><g><path d="M 1.6875 -2.597656 C 1.6875 -0.976562 3.003906 0.335938 4.621094 0.335938 C 6.207031 0.335938 7.523438 -0.976562 7.523438 -2.597656 C 7.523438 -4.183594 6.207031 -5.5 4.621094 -5.5 C 3.003906 -5.5 1.6875 -4.183594 1.6875 -2.597656 Z M 1.6875 -2.597656 "/></g></g></g><g fill="#fdfcf8" fill-opacity="1"><g transform="translate(2.204907, 53.008985)"><g><path d="M 1.015625 -6.734375 L 3.84375 -6.734375 C 4.550781 -6.734375 5.179688 -6.585938 5.734375 -6.296875 C 6.285156 -6.015625 6.710938 -5.617188 7.015625 -5.109375 C 7.316406 -4.609375 7.46875 -4.023438 7.46875 -3.359375 C 7.46875 -2.703125 7.316406 -2.117188 7.015625 -1.609375 C 6.710938 -1.097656 6.285156 -0.703125 5.734375 -0.421875 C 5.179688 -0.140625 4.550781 0 3.84375 0 L 1.015625 0 Z M 3.78125 -0.84375 C 4.332031 -0.84375 4.8125 -0.945312 5.21875 -1.15625 C 5.632812 -1.363281 5.953125 -1.65625 6.171875 -2.03125 C 6.398438 -2.414062 6.515625 -2.859375 6.515625 -3.359375 C 6.515625 -3.859375 6.398438 -4.296875 6.171875 -4.671875 C 5.953125 -5.054688 5.632812 -5.351562 5.21875 -5.5625 C 4.8125 -5.78125 4.332031 -5.890625 3.78125 -5.890625 L 1.96875 -5.890625 L 1.96875 -0.84375 Z M 3.78125 -0.84375 "/></g></g></g><g fill="#fdfcf8" fill-opacity="1"><g transform="translate(10.139307, 53.008985)"><g><path d="M 1.015625 -6.734375 L 1.96875 -6.734375 L 1.96875 0 L 1.015625 0 Z M 1.015625 -6.734375 "/></g></g></g><g fill="#fdfcf8" fill-opacity="1"><g transform="translate(13.117115, 53.008985)"><g><path d="M 5.671875 -3.40625 L 6.59375 -3.40625 L 6.59375 -0.78125 C 6.257812 -0.5 5.867188 -0.285156 5.421875 -0.140625 C 4.984375 0.00390625 4.523438 0.078125 4.046875 0.078125 C 3.367188 0.078125 2.753906 -0.0664062 2.203125 -0.359375 C 1.660156 -0.660156 1.234375 -1.070312 0.921875 -1.59375 C 0.617188 -2.125 0.46875 -2.710938 0.46875 -3.359375 C 0.46875 -4.015625 0.617188 -4.601562 0.921875 -5.125 C 1.234375 -5.65625 1.660156 -6.066406 2.203125 -6.359375 C 2.753906 -6.648438 3.375 -6.796875 4.0625 -6.796875 C 4.601562 -6.796875 5.09375 -6.707031 5.53125 -6.53125 C 5.96875 -6.363281 6.34375 -6.109375 6.65625 -5.765625 L 6.046875 -5.171875 C 5.515625 -5.691406 4.867188 -5.953125 4.109375 -5.953125 C 3.585938 -5.953125 3.125 -5.835938 2.71875 -5.609375 C 2.3125 -5.390625 1.992188 -5.082031 1.765625 -4.6875 C 1.535156 -4.300781 1.421875 -3.859375 1.421875 -3.359375 C 1.421875 -2.878906 1.535156 -2.441406 1.765625 -2.046875 C 1.992188 -1.648438 2.3125 -1.335938 2.71875 -1.109375 C 3.125 -0.890625 3.582031 -0.78125 4.09375 -0.78125 C 4.695312 -0.78125 5.222656 -0.921875 5.671875 -1.203125 Z M 5.671875 -3.40625 "/></g></g></g><g fill="#fdfcf8" fill-opacity="1"><g transform="translate(20.532809, 53.008985)"><g><path d="M 1.015625 -6.734375 L 1.96875 -6.734375 L 1.96875 0 L 1.015625 0 Z M 1.015625 -6.734375 "/></g></g></g><g fill="#fdfcf8" fill-opacity="1"><g transform="translate(23.510617, 53.008985)"><g><path d="M 2.34375 -5.890625 L 0.03125 -5.890625 L 0.03125 -6.734375 L 5.609375 -6.734375 L 5.609375 -5.890625 L 3.296875 -5.890625 L 3.296875 0 L 2.34375 0 Z M 2.34375 -5.890625 "/></g></g></g><g fill="#fdfcf8" fill-opacity="1"><g transform="translate(29.149234, 53.008985)"><g><path d="M 5.296875 -1.6875 L 1.71875 -1.6875 L 0.984375 0 L -0.015625 0 L 3.03125 -6.734375 L 3.984375 -6.734375 L 7.046875 0 L 6.03125 0 Z M 4.953125 -2.453125 L 3.5 -5.75 L 2.0625 -2.453125 Z M 4.953125 -2.453125 "/></g></g></g><g fill="#fdfcf8" fill-opacity="1"><g transform="translate(36.18069, 53.008985)"><g><path d="M 1.015625 -6.734375 L 1.96875 -6.734375 L 1.96875 -0.84375 L 5.609375 -0.84375 L 5.609375 0 L 1.015625 0 Z M 1.015625 -6.734375 "/></g></g></g><g fill="#fdfcf8" fill-opacity="1"><g transform="translate(41.886547, 53.008985)"><g/></g></g><g fill="#fdfcf8" fill-opacity="1"><g transform="translate(44.470515, 53.008985)"><g><path d="M 7.25 0 L 7.234375 -4.90625 L 4.8125 -0.8125 L 4.359375 -0.8125 L 1.9375 -4.875 L 1.9375 0 L 1.015625 0 L 1.015625 -6.734375 L 1.796875 -6.734375 L 4.609375 -2 L 7.375 -6.734375 L 8.15625 -6.734375 L 8.171875 0 Z M 7.25 0 "/></g></g></g><g fill="#fdfcf8" fill-opacity="1"><g transform="translate(53.644073, 53.008985)"><g><path d="M 5.296875 -1.6875 L 1.71875 -1.6875 L 0.984375 0 L -0.015625 0 L 3.03125 -6.734375 L 3.984375 -6.734375 L 7.046875 0 L 6.03125 0 Z M 4.953125 -2.453125 L 3.5 -5.75 L 2.0625 -2.453125 Z M 4.953125 -2.453125 "/></g></g></g><g fill="#fdfcf8" fill-opacity="1"><g transform="translate(60.675529, 53.008985)"><g><path d="M 5.5 0 L 4.0625 -2.0625 C 3.875 -2.050781 3.726562 -2.046875 3.625 -2.046875 L 1.96875 -2.046875 L 1.96875 0 L 1.015625 0 L 1.015625 -6.734375 L 3.625 -6.734375 C 4.5 -6.734375 5.1875 -6.523438 5.6875 -6.109375 C 6.1875 -5.691406 6.4375 -5.113281 6.4375 -4.375 C 6.4375 -3.863281 6.304688 -3.425781 6.046875 -3.0625 C 5.796875 -2.695312 5.429688 -2.429688 4.953125 -2.265625 L 6.546875 0 Z M 3.609375 -2.859375 C 4.210938 -2.859375 4.675781 -2.988281 5 -3.25 C 5.320312 -3.519531 5.484375 -3.894531 5.484375 -4.375 C 5.484375 -4.863281 5.320312 -5.238281 5 -5.5 C 4.675781 -5.757812 4.210938 -5.890625 3.609375 -5.890625 L 1.96875 -5.890625 L 1.96875 -2.859375 Z M 3.609375 -2.859375 "/></g></g></g><g fill="#fdfcf8" fill-opacity="1"><g transform="translate(67.658957, 53.008985)"><g><path d="M 3.203125 -2.984375 L 1.96875 -1.734375 L 1.96875 0 L 1.015625 0 L 1.015625 -6.734375 L 1.96875 -6.734375 L 1.96875 -2.96875 L 5.625 -6.734375 L 6.71875 -6.734375 L 3.84375 -3.703125 L 6.90625 0 L 5.78125 0 Z M 3.203125 -2.984375 "/></g></g></g><g fill="#fdfcf8" fill-opacity="1"><g transform="translate(74.565545, 53.008985)"><g><path d="M 5.890625 -0.84375 L 5.890625 0 L 1.015625 0 L 1.015625 -6.734375 L 5.75 -6.734375 L 5.75 -5.890625 L 1.96875 -5.890625 L 1.96875 -3.828125 L 5.34375 -3.828125 L 5.34375 -3 L 1.96875 -3 L 1.96875 -0.84375 Z M 5.890625 -0.84375 "/></g></g></g><g fill="#fdfcf8" fill-opacity="1"><g transform="translate(81.001441, 53.008985)"><g><path d="M 2.34375 -5.890625 L 0.03125 -5.890625 L 0.03125 -6.734375 L 5.609375 -6.734375 L 5.609375 -5.890625 L 3.296875 -5.890625 L 3.296875 0 L 2.34375 0 Z M 2.34375 -5.890625 "/></g></g></g><g fill="#fdfcf8" fill-opacity="1"><g transform="translate(86.640058, 53.008985)"><g><path d="M 1.015625 -6.734375 L 1.96875 -6.734375 L 1.96875 0 L 1.015625 0 Z M 1.015625 -6.734375 "/></g></g></g><g fill="#fdfcf8" fill-opacity="1"><g transform="translate(89.617866, 53.008985)"><g><path d="M 6.796875 -6.734375 L 6.796875 0 L 6 0 L 1.96875 -5.015625 L 1.96875 0 L 1.015625 0 L 1.015625 -6.734375 L 1.796875 -6.734375 L 5.828125 -1.703125 L 5.828125 -6.734375 Z M 6.796875 -6.734375 "/></g></g></g><g fill="#fdfcf8" fill-opacity="1"><g transform="translate(97.417787, 53.008985)"><g><path d="M 5.671875 -3.40625 L 6.59375 -3.40625 L 6.59375 -0.78125 C 6.257812 -0.5 5.867188 -0.285156 5.421875 -0.140625 C 4.984375 0.00390625 4.523438 0.078125 4.046875 0.078125 C 3.367188 0.078125 2.753906 -0.0664062 2.203125 -0.359375 C 1.660156 -0.660156 1.234375 -1.070312 0.921875 -1.59375 C 0.617188 -2.125 0.46875 -2.710938 0.46875 -3.359375 C 0.46875 -4.015625 0.617188 -4.601562 0.921875 -5.125 C 1.234375 -5.65625 1.660156 -6.066406 2.203125 -6.359375 C 2.753906 -6.648438 3.375 -6.796875 4.0625 -6.796875 C 4.601562 -6.796875 5.09375 -6.707031 5.53125 -6.53125 C 5.96875 -6.363281 6.34375 -6.109375 6.65625 -5.765625 L 6.046875 -5.171875 C 5.515625 -5.691406 4.867188 -5.953125 4.109375 -5.953125 C 3.585938 -5.953125 3.125 -5.835938 2.71875 -5.609375 C 2.3125 -5.390625 1.992188 -5.082031 1.765625 -4.6875 C 1.535156 -4.300781 1.421875 -3.859375 1.421875 -3.359375 C 1.421875 -2.878906 1.535156 -2.441406 1.765625 -2.046875 C 1.992188 -1.648438 2.3125 -1.335938 2.71875 -1.109375 C 3.125 -0.890625 3.582031 -0.78125 4.09375 -0.78125 C 4.695312 -0.78125 5.222656 -0.921875 5.671875 -1.203125 Z M 5.671875 -3.40625 "/></g></g></g><g fill="#fdfcf8" fill-opacity="1"><g transform="translate(104.833481, 53.008985)"><g/></g></g><g fill="#fdfcf8" fill-opacity="1"><g transform="translate(107.41745, 53.008985)"><g><path d="M 5.296875 -1.6875 L 1.71875 -1.6875 L 0.984375 0 L -0.015625 0 L 3.03125 -6.734375 L 3.984375 -6.734375 L 7.046875 0 L 6.03125 0 Z M 4.953125 -2.453125 L 3.5 -5.75 L 2.0625 -2.453125 Z M 4.953125 -2.453125 "/></g></g></g><g fill="#fdfcf8" fill-opacity="1"><g transform="translate(114.448905, 53.008985)"><g><path d="M 5.671875 -3.40625 L 6.59375 -3.40625 L 6.59375 -0.78125 C 6.257812 -0.5 5.867188 -0.285156 5.421875 -0.140625 C 4.984375 0.00390625 4.523438 0.078125 4.046875 0.078125 C 3.367188 0.078125 2.753906 -0.0664062 2.203125 -0.359375 C 1.660156 -0.660156 1.234375 -1.070312 0.921875 -1.59375 C 0.617188 -2.125 0.46875 -2.710938 0.46875 -3.359375 C 0.46875 -4.015625 0.617188 -4.601562 0.921875 -5.125 C 1.234375 -5.65625 1.660156 -6.066406 2.203125 -6.359375 C 2.753906 -6.648438 3.375 -6.796875 4.0625 -6.796875 C 4.601562 -6.796875 5.09375 -6.707031 5.53125 -6.53125 C 5.96875 -6.363281 6.34375 -6.109375 6.65625 -5.765625 L 6.046875 -5.171875 C 5.515625 -5.691406 4.867188 -5.953125 4.109375 -5.953125 C 3.585938 -5.953125 3.125 -5.835938 2.71875 -5.609375 C 2.3125 -5.390625 1.992188 -5.082031 1.765625 -4.6875 C 1.535156 -4.300781 1.421875 -3.859375 1.421875 -3.359375 C 1.421875 -2.878906 1.535156 -2.441406 1.765625 -2.046875 C 1.992188 -1.648438 2.3125 -1.335938 2.71875 -1.109375 C 3.125 -0.890625 3.582031 -0.78125 4.09375 -0.78125 C 4.695312 -0.78125 5.222656 -0.921875 5.671875 -1.203125 Z M 5.671875 -3.40625 "/></g></g></g><g fill="#fdfcf8" fill-opacity="1"><g transform="translate(121.864599, 53.008985)"><g><path d="M 5.890625 -0.84375 L 5.890625 0 L 1.015625 0 L 1.015625 -6.734375 L 5.75 -6.734375 L 5.75 -5.890625 L 1.96875 -5.890625 L 1.96875 -3.828125 L 5.34375 -3.828125 L 5.34375 -3 L 1.96875 -3 L 1.96875 -0.84375 Z M 5.890625 -0.84375 "/></g></g></g><g fill="#fdfcf8" fill-opacity="1"><g transform="translate(128.300495, 53.008985)"><g><path d="M 6.796875 -6.734375 L 6.796875 0 L 6 0 L 1.96875 -5.015625 L 1.96875 0 L 1.015625 0 L 1.015625 -6.734375 L 1.796875 -6.734375 L 5.828125 -1.703125 L 5.828125 -6.734375 Z M 6.796875 -6.734375 "/></g></g></g><g fill="#fdfcf8" fill-opacity="1"><g transform="translate(136.100416, 53.008985)"><g><path d="M 4.015625 0.078125 C 3.335938 0.078125 2.726562 -0.0664062 2.1875 -0.359375 C 1.65625 -0.660156 1.234375 -1.070312 0.921875 -1.59375 C 0.617188 -2.125 0.46875 -2.710938 0.46875 -3.359375 C 0.46875 -4.015625 0.617188 -4.601562 0.921875 -5.125 C 1.234375 -5.644531 1.660156 -6.050781 2.203125 -6.34375 C 2.742188 -6.644531 3.351562 -6.796875 4.03125 -6.796875 C 4.550781 -6.796875 5.03125 -6.707031 5.46875 -6.53125 C 5.90625 -6.363281 6.273438 -6.101562 6.578125 -5.75 L 5.953125 -5.15625 C 5.453125 -5.6875 4.820312 -5.953125 4.0625 -5.953125 C 3.5625 -5.953125 3.109375 -5.835938 2.703125 -5.609375 C 2.304688 -5.390625 1.992188 -5.082031 1.765625 -4.6875 C 1.535156 -4.289062 1.421875 -3.847656 1.421875 -3.359375 C 1.421875 -2.878906 1.535156 -2.441406 1.765625 -2.046875 C 1.992188 -1.648438 2.304688 -1.335938 2.703125 -1.109375 C 3.109375 -0.890625 3.5625 -0.78125 4.0625 -0.78125 C 4.8125 -0.78125 5.441406 -1.046875 5.953125 -1.578125 L 6.578125 -0.984375 C 6.273438 -0.640625 5.90625 -0.375 5.46875 -0.1875 C 5.03125 -0.0078125 4.546875 0.078125 4.015625 0.078125 Z M 4.015625 0.078125 "/></g></g></g><g fill="#fdfcf8" fill-opacity="1"><g transform="translate(143.045418, 53.008985)"><g><path d="M 3.578125 -2.328125 L 3.578125 0 L 2.640625 0 L 2.640625 -2.34375 L -0.03125 -6.734375 L 0.984375 -6.734375 L 3.140625 -3.1875 L 5.296875 -6.734375 L 6.25 -6.734375 Z M 3.578125 -2.328125 "/></g></g></g></svg>