<svg xmlns="http://www.w3.org/2000/svg" xmlns:xlink="http://www.w3.org/1999/xlink" width="500" zoomAndPan="magnify" viewBox="0 0 375 374.999991" height="500" preserveAspectRatio="xMidYMid meet" version="1.0"><defs><clipPath id="0e9d2dd1bb"><path d="M 375 187.5 C 375 291.050781 291.050781 375 187.5 375 C 83.945312 375 0 291.050781 0 187.5 C 0 83.949219 83.945312 0 187.5 0 C 291.054688 0 375 83.949219 375 187.5 Z M 375 187.5 " clip-rule="nonzero"/></clipPath><linearGradient x1="0" gradientTransform="matrix(0.75, 0, 0, 0.749997, 0.0000045, 0)" y1="0" x2="0" gradientUnits="userSpaceOnUse" y2="499.999972" id="29c5ac3abe"><stop stop-opacity="1" stop-color="rgb(100%, 66.699219%, 8.999634%)" offset="0"/><stop stop-opacity="1" stop-color="rgb(99.832153%, 66.572571%, 8.964539%)" offset="0.0078125"/><stop stop-opacity="1" stop-color="rgb(99.497986%, 66.320801%, 8.894348%)" offset="0.015625"/><stop stop-opacity="1" stop-color="rgb(99.165344%, 66.069031%, 8.824158%)" offset="0.0234375"/><stop stop-opacity="1" stop-color="rgb(98.831177%, 65.818787%, 8.752441%)" offset="0.03125"/><stop stop-opacity="1" stop-color="rgb(98.497009%, 65.567017%, 8.682251%)" offset="0.0390625"/><stop stop-opacity="1" stop-color="rgb(98.164368%, 65.315247%, 8.612061%)" offset="0.046875"/><stop stop-opacity="1" stop-color="rgb(97.8302%, 65.063477%, 8.54187%)" offset="0.0546875"/><stop stop-opacity="1" stop-color="rgb(97.497559%, 64.811707%, 8.47168%)" offset="0.0625"/><stop stop-opacity="1" stop-color="rgb(97.163391%, 64.559937%, 8.401489%)" offset="0.0703125"/><stop stop-opacity="1" stop-color="rgb(96.829224%, 64.308167%, 8.331299%)" offset="0.078125"/><stop stop-opacity="1" stop-color="rgb(96.496582%, 64.057922%, 8.261108%)" offset="0.0859375"/><stop stop-opacity="1" stop-color="rgb(96.162415%, 63.806152%, 8.190918%)" offset="0.09375"/><stop stop-opacity="1" stop-color="rgb(95.828247%, 63.554382%, 8.120728%)" offset="0.101562"/><stop stop-opacity="1" stop-color="rgb(95.495605%, 63.302612%, 8.050537%)" offset="0.109375"/><stop stop-opacity="1" stop-color="rgb(95.161438%, 63.050842%, 7.980347%)" offset="0.117188"/><stop stop-opacity="1" stop-color="rgb(94.828796%, 62.799072%, 7.90863%)" offset="0.125"/><stop stop-opacity="1" stop-color="rgb(94.494629%, 62.547302%, 7.83844%)" offset="0.132812"/><stop stop-opacity="1" stop-color="rgb(94.160461%, 62.295532%, 7.76825%)" offset="0.140625"/><stop stop-opacity="1" stop-color="rgb(93.82782%, 62.045288%, 7.698059%)" offset="0.148438"/><stop stop-opacity="1" stop-color="rgb(93.493652%, 61.793518%, 7.627869%)" offset="0.15625"/><stop stop-opacity="1" stop-color="rgb(93.159485%, 61.541748%, 7.557678%)" offset="0.164062"/><stop stop-opacity="1" stop-color="rgb(92.826843%, 61.289978%, 7.487488%)" offset="0.171875"/><stop stop-opacity="1" stop-color="rgb(92.492676%, 61.038208%, 7.417297%)" offset="0.179688"/><stop stop-opacity="1" stop-color="rgb(92.160034%, 60.786438%, 7.347107%)" offset="0.1875"/><stop stop-opacity="1" stop-color="rgb(91.825867%, 60.534668%, 7.276917%)" offset="0.195312"/><stop stop-opacity="1" stop-color="rgb(91.491699%, 60.284424%, 7.206726%)" offset="0.203125"/><stop stop-opacity="1" stop-color="rgb(91.159058%, 60.032654%, 7.136536%)" offset="0.210938"/><stop stop-opacity="1" stop-color="rgb(90.82489%, 59.780884%, 7.066345%)" offset="0.21875"/><stop stop-opacity="1" stop-color="rgb(90.490723%, 59.529114%, 6.994629%)" offset="0.226563"/><stop stop-opacity="1" stop-color="rgb(90.158081%, 59.277344%, 6.924438%)" offset="0.234375"/><stop stop-opacity="1" stop-color="rgb(89.823914%, 59.025574%, 6.854248%)" offset="0.242188"/><stop stop-opacity="1" stop-color="rgb(89.491272%, 58.773804%, 6.784058%)" offset="0.25"/><stop stop-opacity="1" stop-color="rgb(89.157104%, 58.52356%, 6.713867%)" offset="0.257812"/><stop stop-opacity="1" stop-color="rgb(88.822937%, 58.27179%, 6.643677%)" offset="0.265625"/><stop stop-opacity="1" stop-color="rgb(88.490295%, 58.02002%, 6.573486%)" offset="0.273438"/><stop stop-opacity="1" stop-color="rgb(88.156128%, 57.76825%, 6.503296%)" offset="0.28125"/><stop stop-opacity="1" stop-color="rgb(87.82196%, 57.516479%, 6.433105%)" offset="0.289062"/><stop stop-opacity="1" stop-color="rgb(87.489319%, 57.264709%, 6.362915%)" offset="0.296875"/><stop stop-opacity="1" stop-color="rgb(87.155151%, 57.012939%, 6.292725%)" offset="0.304688"/><stop stop-opacity="1" stop-color="rgb(86.82251%, 56.761169%, 6.222534%)" offset="0.3125"/><stop stop-opacity="1" stop-color="rgb(86.488342%, 56.510925%, 6.150818%)" offset="0.320312"/><stop stop-opacity="1" stop-color="rgb(86.154175%, 56.259155%, 6.080627%)" offset="0.328125"/><stop stop-opacity="1" stop-color="rgb(85.821533%, 56.007385%, 6.010437%)" offset="0.335938"/><stop stop-opacity="1" stop-color="rgb(85.487366%, 55.755615%, 5.940247%)" offset="0.34375"/><stop stop-opacity="1" stop-color="rgb(85.153198%, 55.503845%, 5.870056%)" offset="0.351562"/><stop stop-opacity="1" stop-color="rgb(84.820557%, 55.252075%, 5.799866%)" offset="0.359375"/><stop stop-opacity="1" stop-color="rgb(84.486389%, 55.000305%, 5.729675%)" offset="0.367188"/><stop stop-opacity="1" stop-color="rgb(84.153748%, 54.750061%, 5.659485%)" offset="0.375"/><stop stop-opacity="1" stop-color="rgb(83.81958%, 54.498291%, 5.589294%)" offset="0.382812"/><stop stop-opacity="1" stop-color="rgb(83.485413%, 54.246521%, 5.519104%)" offset="0.390625"/><stop stop-opacity="1" stop-color="rgb(83.152771%, 53.994751%, 5.448914%)" offset="0.398438"/><stop stop-opacity="1" stop-color="rgb(82.818604%, 53.742981%, 5.378723%)" offset="0.40625"/><stop stop-opacity="1" stop-color="rgb(82.484436%, 53.491211%, 5.308533%)" offset="0.414062"/><stop stop-opacity="1" stop-color="rgb(82.151794%, 53.239441%, 5.236816%)" offset="0.421875"/><stop stop-opacity="1" stop-color="rgb(81.817627%, 52.987671%, 5.166626%)" offset="0.429688"/><stop stop-opacity="1" stop-color="rgb(81.484985%, 52.737427%, 5.096436%)" offset="0.4375"/><stop stop-opacity="1" stop-color="rgb(81.150818%, 52.485657%, 5.026245%)" offset="0.445312"/><stop stop-opacity="1" stop-color="rgb(80.81665%, 52.233887%, 4.956055%)" offset="0.453125"/><stop stop-opacity="1" stop-color="rgb(80.484009%, 51.982117%, 4.885864%)" offset="0.460938"/><stop stop-opacity="1" stop-color="rgb(80.149841%, 51.730347%, 4.815674%)" offset="0.46875"/><stop stop-opacity="1" stop-color="rgb(79.815674%, 51.478577%, 4.745483%)" offset="0.476562"/><stop stop-opacity="1" stop-color="rgb(79.483032%, 51.226807%, 4.675293%)" offset="0.484375"/><stop stop-opacity="1" stop-color="rgb(79.148865%, 50.976562%, 4.605103%)" offset="0.492187"/><stop stop-opacity="1" stop-color="rgb(78.816223%, 50.724792%, 4.534912%)" offset="0.5"/><stop stop-opacity="1" stop-color="rgb(78.482056%, 50.473022%, 4.464722%)" offset="0.507812"/><stop stop-opacity="1" stop-color="rgb(78.147888%, 50.221252%, 4.393005%)" offset="0.515625"/><stop stop-opacity="1" stop-color="rgb(77.815247%, 49.969482%, 4.322815%)" offset="0.523438"/><stop stop-opacity="1" stop-color="rgb(77.481079%, 49.717712%, 4.252625%)" offset="0.53125"/><stop stop-opacity="1" stop-color="rgb(77.146912%, 49.465942%, 4.182434%)" offset="0.539062"/><stop stop-opacity="1" stop-color="rgb(76.81427%, 49.215698%, 4.112244%)" offset="0.546875"/><stop stop-opacity="1" stop-color="rgb(76.480103%, 48.963928%, 4.042053%)" offset="0.554688"/><stop stop-opacity="1" stop-color="rgb(76.147461%, 48.712158%, 3.971863%)" offset="0.5625"/><stop stop-opacity="1" stop-color="rgb(75.813293%, 48.460388%, 3.901672%)" offset="0.570312"/><stop stop-opacity="1" stop-color="rgb(75.479126%, 48.208618%, 3.831482%)" offset="0.578125"/><stop stop-opacity="1" stop-color="rgb(75.146484%, 47.956848%, 3.761292%)" offset="0.585938"/><stop stop-opacity="1" stop-color="rgb(74.812317%, 47.705078%, 3.691101%)" offset="0.59375"/><stop stop-opacity="1" stop-color="rgb(74.478149%, 47.453308%, 3.620911%)" offset="0.601562"/><stop stop-opacity="1" stop-color="rgb(74.145508%, 47.203064%, 3.55072%)" offset="0.609375"/><stop stop-opacity="1" stop-color="rgb(73.81134%, 46.951294%, 3.479004%)" offset="0.617188"/><stop stop-opacity="1" stop-color="rgb(73.478699%, 46.699524%, 3.408813%)" offset="0.625"/><stop stop-opacity="1" stop-color="rgb(73.144531%, 46.447754%, 3.338623%)" offset="0.632812"/><stop stop-opacity="1" stop-color="rgb(72.810364%, 46.195984%, 3.268433%)" offset="0.640625"/><stop stop-opacity="1" stop-color="rgb(72.477722%, 45.944214%, 3.198242%)" offset="0.648438"/><stop stop-opacity="1" stop-color="rgb(72.143555%, 45.692444%, 3.128052%)" offset="0.65625"/><stop stop-opacity="1" stop-color="rgb(71.809387%, 45.4422%, 3.057861%)" offset="0.664062"/><stop stop-opacity="1" stop-color="rgb(71.476746%, 45.19043%, 2.987671%)" offset="0.671875"/><stop stop-opacity="1" stop-color="rgb(71.142578%, 44.93866%, 2.91748%)" offset="0.679688"/><stop stop-opacity="1" stop-color="rgb(70.809937%, 44.68689%, 2.84729%)" offset="0.6875"/><stop stop-opacity="1" stop-color="rgb(70.475769%, 44.43512%, 2.7771%)" offset="0.695312"/><stop stop-opacity="1" stop-color="rgb(70.141602%, 44.18335%, 2.706909%)" offset="0.703125"/><stop stop-opacity="1" stop-color="rgb(69.80896%, 43.93158%, 2.635193%)" offset="0.710938"/><stop stop-opacity="1" stop-color="rgb(69.474792%, 43.681335%, 2.565002%)" offset="0.71875"/><stop stop-opacity="1" stop-color="rgb(69.140625%, 43.429565%, 2.494812%)" offset="0.726562"/><stop stop-opacity="1" stop-color="rgb(68.807983%, 43.177795%, 2.424622%)" offset="0.734375"/><stop stop-opacity="1" stop-color="rgb(68.473816%, 42.926025%, 2.354431%)" offset="0.742188"/><stop stop-opacity="1" stop-color="rgb(68.141174%, 42.674255%, 2.284241%)" offset="0.75"/><stop stop-opacity="1" stop-color="rgb(67.807007%, 42.422485%, 2.21405%)" offset="0.757812"/><stop stop-opacity="1" stop-color="rgb(67.472839%, 42.170715%, 2.14386%)" offset="0.765625"/><stop stop-opacity="1" stop-color="rgb(67.140198%, 41.918945%, 2.073669%)" offset="0.773438"/><stop stop-opacity="1" stop-color="rgb(66.80603%, 41.668701%, 2.003479%)" offset="0.78125"/><stop stop-opacity="1" stop-color="rgb(66.471863%, 41.416931%, 1.933289%)" offset="0.789062"/><stop stop-opacity="1" stop-color="rgb(66.139221%, 41.165161%, 1.863098%)" offset="0.796875"/><stop stop-opacity="1" stop-color="rgb(65.805054%, 40.913391%, 1.792908%)" offset="0.804688"/><stop stop-opacity="1" stop-color="rgb(65.472412%, 40.661621%, 1.721191%)" offset="0.8125"/><stop stop-opacity="1" stop-color="rgb(65.138245%, 40.409851%, 1.651001%)" offset="0.820312"/><stop stop-opacity="1" stop-color="rgb(64.804077%, 40.158081%, 1.580811%)" offset="0.828125"/><stop stop-opacity="1" stop-color="rgb(64.471436%, 39.907837%, 1.51062%)" offset="0.835938"/><stop stop-opacity="1" stop-color="rgb(64.137268%, 39.656067%, 1.44043%)" offset="0.84375"/><stop stop-opacity="1" stop-color="rgb(63.803101%, 39.404297%, 1.370239%)" offset="0.851562"/><stop stop-opacity="1" stop-color="rgb(63.470459%, 39.152527%, 1.300049%)" offset="0.859375"/><stop stop-opacity="1" stop-color="rgb(63.136292%, 38.900757%, 1.229858%)" offset="0.867188"/><stop stop-opacity="1" stop-color="rgb(62.80365%, 38.648987%, 1.159668%)" offset="0.875"/><stop stop-opacity="1" stop-color="rgb(62.469482%, 38.397217%, 1.089478%)" offset="0.882812"/><stop stop-opacity="1" stop-color="rgb(62.135315%, 38.146973%, 1.019287%)" offset="0.890625"/><stop stop-opacity="1" stop-color="rgb(61.802673%, 37.895203%, 0.949097%)" offset="0.898438"/><stop stop-opacity="1" stop-color="rgb(61.468506%, 37.643433%, 0.87738%)" offset="0.90625"/><stop stop-opacity="1" stop-color="rgb(61.134338%, 37.391663%, 0.80719%)" offset="0.914062"/><stop stop-opacity="1" stop-color="rgb(60.801697%, 37.139893%, 0.737%)" offset="0.921875"/><stop stop-opacity="1" stop-color="rgb(60.467529%, 36.888123%, 0.666809%)" offset="0.929688"/><stop stop-opacity="1" stop-color="rgb(60.134888%, 36.636353%, 0.596619%)" offset="0.9375"/><stop stop-opacity="1" stop-color="rgb(59.80072%, 36.384583%, 0.526428%)" offset="0.945313"/><stop stop-opacity="1" stop-color="rgb(59.466553%, 36.134338%, 0.456238%)" offset="0.953125"/><stop stop-opacity="1" stop-color="rgb(59.133911%, 35.882568%, 0.386047%)" offset="0.960938"/><stop stop-opacity="1" stop-color="rgb(58.799744%, 35.630798%, 0.315857%)" offset="0.96875"/><stop stop-opacity="1" stop-color="rgb(58.467102%, 35.379028%, 0.245667%)" offset="0.976562"/><stop stop-opacity="1" stop-color="rgb(58.132935%, 35.127258%, 0.175476%)" offset="0.984375"/><stop stop-opacity="1" stop-color="rgb(57.798767%, 34.875488%, 0.105286%)" offset="0.992188"/><stop stop-opacity="1" stop-color="rgb(57.466125%, 34.623718%, 0.0350952%)" offset="1"/></linearGradient><clipPath id="f34d6da21b"><path d="M 50 53 L 325.496094 53 L 325.496094 322 L 50 322 Z M 50 53 " clip-rule="nonzero"/></clipPath></defs><g clip-path="url(#0e9d2dd1bb)"><rect x="-37.5" fill="url(#29c5ac3abe)" width="450" y="-37.499999" height="449.999989"/></g><g clip-path="url(#f34d6da21b)"><path fill="#ffffff" d="M 325.496094 269.964844 C 325.5 271.242188 325.445312 272.519531 325.332031 273.792969 C 325.21875 275.066406 325.042969 276.332031 324.8125 277.589844 C 324.582031 278.847656 324.292969 280.089844 323.945312 281.320312 C 323.597656 282.550781 323.191406 283.761719 322.730469 284.957031 C 322.269531 286.148438 321.757812 287.316406 321.1875 288.460938 C 320.617188 289.605469 319.996094 290.722656 319.324219 291.808594 C 318.652344 292.898438 317.929688 293.949219 317.15625 294.972656 C 316.386719 295.992188 315.570312 296.972656 314.707031 297.917969 C 313.84375 298.859375 312.941406 299.761719 311.996094 300.621094 C 311.046875 301.484375 310.0625 302.296875 309.042969 303.066406 C 308.019531 303.832031 306.964844 304.550781 305.875 305.222656 C 304.785156 305.890625 303.667969 306.511719 302.523438 307.078125 C 301.375 307.640625 300.207031 308.152344 299.011719 308.609375 C 297.816406 309.066406 296.605469 309.46875 295.371094 309.8125 C 294.140625 310.15625 292.898438 310.445312 291.640625 310.671875 C 290.378906 310.902344 289.113281 311.070312 287.839844 311.179688 C 286.566406 311.292969 285.289062 311.34375 284.011719 311.335938 C 282.734375 311.328125 281.457031 311.257812 280.1875 311.132812 C 278.914062 311.003906 277.648438 310.820312 276.394531 310.574219 C 275.140625 310.332031 273.898438 310.027344 272.671875 309.667969 C 271.445312 309.308594 270.238281 308.894531 269.050781 308.421875 C 267.859375 307.949219 266.695312 307.421875 265.558594 306.839844 C 264.417969 306.261719 263.308594 305.628906 262.226562 304.945312 C 261.148438 304.261719 260.101562 303.527344 259.089844 302.746094 C 258.078125 301.964844 257.101562 301.140625 256.167969 300.269531 C 255.234375 299.394531 254.339844 298.484375 253.488281 297.527344 C 252.640625 296.574219 251.835938 295.582031 251.078125 294.550781 C 250.320312 293.523438 249.609375 292.460938 248.949219 291.363281 C 248.292969 290.269531 247.683594 289.144531 247.128906 287.992188 C 246.574219 286.839844 246.074219 285.664062 245.628906 284.464844 C 245.1875 283.265625 244.796875 282.050781 244.464844 280.816406 C 244.132812 279.582031 243.859375 278.332031 243.644531 277.074219 C 243.425781 275.8125 243.269531 274.546875 243.171875 273.269531 C 243.074219 271.996094 243.035156 270.71875 243.058594 269.441406 C 243.078125 268.160156 243.15625 266.886719 243.296875 265.617188 C 243.4375 264.34375 243.636719 263.082031 243.890625 261.832031 C 244.148438 260.578125 244.464844 259.339844 244.835938 258.117188 C 245.207031 256.894531 245.636719 255.691406 246.121094 254.507812 C 246.601562 253.324219 247.140625 252.164062 247.734375 251.03125 C 248.324219 249.898438 248.96875 248.792969 249.664062 247.722656 C 250.355469 246.648438 251.101562 245.609375 251.890625 244.605469 C 252.683594 243.601562 253.519531 242.632812 254.398438 241.707031 C 255.28125 240.78125 256.203125 239.898438 257.167969 239.054688 C 258.128906 238.214844 259.128906 237.421875 260.167969 236.671875 C 261.203125 235.925781 262.273438 235.226562 263.375 234.578125 C 264.476562 233.933594 265.609375 233.335938 266.765625 232.792969 C 267.921875 232.25 269.101562 231.761719 270.304688 231.328125 C 271.507812 230.894531 272.730469 230.519531 273.96875 230.199219 L 273.96875 132.554688 C 273.96875 131.992188 273.941406 131.433594 273.882812 130.871094 C 273.828125 130.3125 273.746094 129.757812 273.636719 129.207031 C 273.527344 128.652344 273.386719 128.109375 273.226562 127.570312 C 273.0625 127.03125 272.871094 126.503906 272.65625 125.984375 C 272.441406 125.464844 272.199219 124.957031 271.933594 124.460938 C 271.671875 123.964844 271.382812 123.484375 271.070312 123.015625 C 270.757812 122.546875 270.421875 122.097656 270.066406 121.664062 C 269.707031 121.226562 269.332031 120.8125 268.933594 120.414062 C 268.535156 120.015625 268.117188 119.640625 267.683594 119.28125 C 267.25 118.925781 266.796875 118.589844 266.332031 118.277344 C 265.863281 117.964844 265.382812 117.675781 264.886719 117.410156 C 264.390625 117.144531 263.882812 116.90625 263.363281 116.691406 C 262.84375 116.476562 262.3125 116.285156 261.777344 116.121094 C 261.238281 115.957031 260.691406 115.820312 260.140625 115.710938 C 259.589844 115.601562 259.035156 115.519531 258.476562 115.464844 C 257.914062 115.40625 257.355469 115.378906 256.792969 115.378906 L 226.699219 115.378906 L 250.332031 139.011719 C 250.839844 139.484375 251.292969 140.003906 251.695312 140.566406 C 252.097656 141.128906 252.441406 141.726562 252.722656 142.359375 C 253.003906 142.992188 253.21875 143.644531 253.367188 144.320312 C 253.519531 144.996094 253.601562 145.679688 253.613281 146.371094 C 253.625 147.0625 253.566406 147.75 253.441406 148.429688 C 253.316406 149.109375 253.121094 149.769531 252.863281 150.414062 C 252.605469 151.054688 252.285156 151.664062 251.902344 152.242188 C 251.519531 152.816406 251.085938 153.351562 250.59375 153.839844 C 250.105469 154.328125 249.574219 154.765625 248.996094 155.148438 C 248.417969 155.527344 247.808594 155.851562 247.167969 156.109375 C 246.527344 156.367188 245.863281 156.558594 245.183594 156.6875 C 244.503906 156.8125 243.816406 156.871094 243.125 156.855469 C 242.433594 156.84375 241.75 156.765625 241.074219 156.613281 C 240.398438 156.464844 239.746094 156.25 239.113281 155.964844 C 238.480469 155.683594 237.882812 155.34375 237.320312 154.941406 C 236.757812 154.539062 236.238281 154.085938 235.769531 153.578125 L 194.546875 112.355469 C 194.066406 111.878906 193.640625 111.355469 193.265625 110.792969 C 192.886719 110.230469 192.570312 109.636719 192.3125 109.011719 C 192.054688 108.386719 191.859375 107.742188 191.726562 107.078125 C 191.59375 106.414062 191.527344 105.746094 191.527344 105.070312 C 191.527344 104.394531 191.59375 103.722656 191.726562 103.058594 C 191.859375 102.394531 192.054688 101.75 192.3125 101.125 C 192.570312 100.5 192.886719 99.90625 193.265625 99.34375 C 193.640625 98.78125 194.066406 98.261719 194.546875 97.78125 L 235.769531 56.558594 C 236.25 56.101562 236.773438 55.695312 237.335938 55.335938 C 237.898438 54.980469 238.488281 54.679688 239.105469 54.4375 C 239.726562 54.195312 240.363281 54.015625 241.019531 53.898438 C 241.671875 53.777344 242.332031 53.722656 243 53.730469 C 243.664062 53.742188 244.320312 53.8125 244.972656 53.949219 C 245.625 54.085938 246.257812 54.285156 246.871094 54.542969 C 247.484375 54.800781 248.066406 55.117188 248.617188 55.488281 C 249.167969 55.859375 249.679688 56.28125 250.152344 56.75 C 250.621094 57.222656 251.042969 57.734375 251.414062 58.285156 C 251.785156 58.835938 252.097656 59.421875 252.359375 60.035156 C 252.617188 60.644531 252.8125 61.277344 252.949219 61.929688 C 253.085938 62.582031 253.15625 63.238281 253.167969 63.90625 C 253.175781 64.570312 253.121094 65.230469 253 65.886719 C 252.878906 66.539062 252.699219 67.175781 252.457031 67.796875 C 252.214844 68.414062 251.914062 69.007812 251.558594 69.566406 C 251.199219 70.128906 250.792969 70.652344 250.332031 71.132812 L 226.699219 94.769531 L 256.792969 94.769531 C 258.027344 94.769531 259.261719 94.832031 260.496094 94.953125 C 261.726562 95.074219 262.949219 95.257812 264.160156 95.5 C 265.375 95.742188 266.574219 96.042969 267.757812 96.402344 C 268.941406 96.761719 270.105469 97.179688 271.246094 97.65625 C 272.390625 98.128906 273.507812 98.65625 274.597656 99.242188 C 275.6875 99.824219 276.746094 100.460938 277.777344 101.148438 C 278.804688 101.835938 279.796875 102.570312 280.753906 103.355469 C 281.710938 104.140625 282.625 104.972656 283.5 105.847656 C 284.375 106.722656 285.207031 107.636719 285.992188 108.59375 C 286.773438 109.550781 287.511719 110.542969 288.199219 111.570312 C 288.886719 112.597656 289.523438 113.660156 290.105469 114.75 C 290.691406 115.839844 291.21875 116.957031 291.691406 118.101562 C 292.167969 119.242188 292.582031 120.40625 292.945312 121.589844 C 293.304688 122.773438 293.605469 123.972656 293.847656 125.1875 C 294.089844 126.398438 294.273438 127.621094 294.394531 128.851562 C 294.515625 130.082031 294.578125 131.316406 294.578125 132.554688 L 294.578125 230.199219 C 295.675781 230.480469 296.753906 230.804688 297.824219 231.175781 C 298.890625 231.542969 299.941406 231.957031 300.976562 232.414062 C 302.007812 232.871094 303.023438 233.367188 304.015625 233.90625 C 305.007812 234.445312 305.976562 235.027344 306.921875 235.644531 C 307.867188 236.265625 308.785156 236.921875 309.675781 237.617188 C 310.566406 238.3125 311.425781 239.042969 312.257812 239.8125 C 313.089844 240.578125 313.886719 241.375 314.648438 242.207031 C 315.414062 243.039062 316.144531 243.902344 316.835938 244.792969 C 317.53125 245.6875 318.1875 246.605469 318.804688 247.550781 C 319.421875 248.5 320 249.46875 320.539062 250.460938 C 321.078125 251.457031 321.574219 252.46875 322.027344 253.503906 C 322.480469 254.539062 322.890625 255.589844 323.257812 256.660156 C 323.628906 257.726562 323.949219 258.808594 324.226562 259.90625 C 324.507812 261 324.738281 262.105469 324.925781 263.21875 C 325.113281 264.332031 325.253906 265.453125 325.351562 266.578125 C 325.445312 267.707031 325.496094 268.832031 325.496094 269.964844 Z M 140.40625 221.457031 C 139.921875 221.007812 139.402344 220.605469 138.839844 220.257812 C 138.277344 219.90625 137.6875 219.613281 137.070312 219.375 C 136.453125 219.140625 135.820312 218.964844 135.167969 218.847656 C 134.515625 218.734375 133.859375 218.683594 133.199219 218.695312 C 132.539062 218.707031 131.882812 218.78125 131.238281 218.917969 C 130.589844 219.054688 129.960938 219.253906 129.355469 219.511719 C 128.746094 219.769531 128.167969 220.085938 127.617188 220.453125 C 127.070312 220.824219 126.5625 221.242188 126.09375 221.710938 C 125.625 222.179688 125.207031 222.6875 124.835938 223.234375 C 124.46875 223.785156 124.152344 224.363281 123.894531 224.972656 C 123.636719 225.578125 123.4375 226.207031 123.300781 226.855469 C 123.164062 227.5 123.089844 228.15625 123.078125 228.816406 C 123.066406 229.476562 123.117188 230.132812 123.230469 230.785156 C 123.347656 231.4375 123.523438 232.070312 123.757812 232.6875 C 123.996094 233.304688 124.289062 233.894531 124.640625 234.457031 C 124.988281 235.015625 125.390625 235.539062 125.839844 236.023438 L 149.476562 259.65625 L 119.382812 259.65625 C 118.820312 259.65625 118.261719 259.628906 117.699219 259.574219 C 117.140625 259.519531 116.585938 259.4375 116.035156 259.324219 C 115.480469 259.214844 114.9375 259.078125 114.398438 258.914062 C 113.859375 258.75 113.332031 258.5625 112.8125 258.347656 C 112.292969 258.132812 111.785156 257.890625 111.289062 257.625 C 110.792969 257.359375 110.3125 257.070312 109.84375 256.757812 C 109.375 256.445312 108.925781 256.113281 108.492188 255.753906 C 108.054688 255.398438 107.640625 255.019531 107.242188 254.621094 C 106.84375 254.226562 106.46875 253.808594 106.109375 253.375 C 105.753906 252.941406 105.417969 252.488281 105.105469 252.019531 C 104.792969 251.554688 104.503906 251.070312 104.238281 250.574219 C 103.972656 250.078125 103.734375 249.570312 103.519531 249.050781 C 103.304688 248.535156 103.113281 248.003906 102.949219 247.464844 C 102.785156 246.929688 102.648438 246.382812 102.539062 245.832031 C 102.429688 245.28125 102.347656 244.726562 102.292969 244.164062 C 102.234375 243.605469 102.207031 243.042969 102.207031 242.480469 L 102.207031 144.839844 C 103.007812 144.632812 103.800781 144.402344 104.589844 144.144531 C 105.375 143.890625 106.15625 143.613281 106.925781 143.3125 C 107.695312 143.011719 108.457031 142.6875 109.207031 142.339844 C 109.957031 141.992188 110.699219 141.621094 111.425781 141.230469 C 112.15625 140.839844 112.871094 140.425781 113.574219 139.988281 C 114.277344 139.554688 114.96875 139.097656 115.644531 138.621094 C 116.320312 138.144531 116.980469 137.648438 117.628906 137.132812 C 118.273438 136.617188 118.90625 136.082031 119.519531 135.527344 C 120.132812 134.972656 120.730469 134.402344 121.308594 133.8125 C 121.890625 133.222656 122.453125 132.613281 122.996094 131.988281 C 123.539062 131.367188 124.0625 130.726562 124.566406 130.070312 C 125.070312 129.414062 125.554688 128.746094 126.019531 128.058594 C 126.484375 127.375 126.925781 126.675781 127.347656 125.964844 C 127.773438 125.253906 128.171875 124.53125 128.550781 123.796875 C 128.929688 123.0625 129.285156 122.3125 129.621094 121.558594 C 129.953125 120.800781 130.265625 120.035156 130.550781 119.257812 C 130.839844 118.484375 131.101562 117.699219 131.34375 116.90625 C 131.585938 116.117188 131.800781 115.316406 131.992188 114.515625 C 132.1875 113.710938 132.355469 112.898438 132.496094 112.085938 C 132.640625 111.269531 132.761719 110.453125 132.855469 109.628906 C 132.949219 108.808594 133.019531 107.984375 133.0625 107.160156 C 133.109375 106.332031 133.128906 105.503906 133.125 104.679688 C 133.117188 103.851562 133.089844 103.023438 133.035156 102.199219 C 132.980469 101.375 132.898438 100.550781 132.796875 99.730469 C 132.691406 98.910156 132.5625 98.09375 132.410156 97.28125 C 132.253906 96.46875 132.078125 95.660156 131.875 94.855469 C 131.675781 94.054688 131.449219 93.257812 131.199219 92.472656 C 130.949219 91.683594 130.675781 90.902344 130.378906 90.128906 C 130.082031 89.359375 129.761719 88.59375 129.417969 87.84375 C 129.074219 87.089844 128.710938 86.347656 128.324219 85.617188 C 127.933594 84.886719 127.527344 84.167969 127.09375 83.460938 C 126.664062 82.753906 126.214844 82.0625 125.742188 81.382812 C 125.269531 80.703125 124.777344 80.039062 124.261719 79.390625 C 123.75 78.742188 123.21875 78.105469 122.667969 77.488281 C 122.117188 76.871094 121.550781 76.273438 120.964844 75.6875 C 120.375 75.105469 119.773438 74.539062 119.152344 73.992188 C 118.53125 73.445312 117.894531 72.917969 117.242188 72.410156 C 116.589844 71.902344 115.921875 71.414062 115.242188 70.945312 C 114.558594 70.476562 113.863281 70.03125 113.15625 69.601562 C 112.445312 69.175781 111.726562 68.773438 110.992188 68.386719 C 110.257812 68.003906 109.515625 67.644531 108.757812 67.304688 C 108.003906 66.96875 107.238281 66.652344 106.464844 66.359375 C 105.691406 66.066406 104.910156 65.800781 104.121094 65.554688 C 103.332031 65.308594 102.535156 65.085938 101.730469 64.890625 C 100.925781 64.695312 100.117188 64.519531 99.304688 64.371094 C 98.492188 64.222656 97.671875 64.097656 96.851562 64 C 96.03125 63.902344 95.207031 63.828125 94.382812 63.777344 C 93.554688 63.726562 92.730469 63.703125 91.902344 63.703125 C 91.074219 63.703125 90.246094 63.726562 89.421875 63.777344 C 88.597656 63.828125 87.773438 63.902344 86.953125 64 C 86.128906 64.097656 85.3125 64.222656 84.5 64.371094 C 83.683594 64.519531 82.875 64.695312 82.074219 64.890625 C 81.269531 65.085938 80.472656 65.308594 79.683594 65.554688 C 78.894531 65.800781 78.109375 66.066406 77.335938 66.359375 C 76.5625 66.652344 75.796875 66.96875 75.042969 67.304688 C 74.289062 67.644531 73.542969 68.003906 72.8125 68.386719 C 72.078125 68.773438 71.355469 69.175781 70.648438 69.601562 C 69.941406 70.03125 69.246094 70.476562 68.5625 70.945312 C 67.878906 71.414062 67.214844 71.902344 66.5625 72.410156 C 65.910156 72.917969 65.273438 73.445312 64.652344 73.992188 C 64.03125 74.539062 63.425781 75.105469 62.839844 75.6875 C 62.253906 76.273438 61.683594 76.871094 61.132812 77.488281 C 60.582031 78.105469 60.050781 78.742188 59.539062 79.390625 C 59.027344 80.039062 58.535156 80.703125 58.0625 81.382812 C 57.589844 82.0625 57.136719 82.753906 56.707031 83.460938 C 56.277344 84.167969 55.867188 84.886719 55.480469 85.617188 C 55.09375 86.347656 54.726562 87.089844 54.382812 87.84375 C 54.042969 88.59375 53.722656 89.359375 53.425781 90.128906 C 53.128906 90.902344 52.855469 91.683594 52.605469 92.472656 C 52.355469 93.257812 52.128906 94.054688 51.925781 94.855469 C 51.726562 95.660156 51.546875 96.46875 51.394531 97.28125 C 51.242188 98.09375 51.113281 98.910156 51.007812 99.730469 C 50.902344 100.550781 50.824219 101.375 50.769531 102.199219 C 50.714844 103.023438 50.683594 103.851562 50.679688 104.679688 C 50.675781 105.503906 50.695312 106.332031 50.738281 107.160156 C 50.785156 107.984375 50.855469 108.808594 50.949219 109.628906 C 51.042969 110.453125 51.160156 111.269531 51.304688 112.085938 C 51.449219 112.898438 51.617188 113.710938 51.808594 114.515625 C 52.003906 115.316406 52.21875 116.117188 52.460938 116.90625 C 52.699219 117.699219 52.964844 118.484375 53.25 119.257812 C 53.539062 120.035156 53.851562 120.800781 54.183594 121.558594 C 54.515625 122.3125 54.875 123.0625 55.253906 123.796875 C 55.632812 124.53125 56.03125 125.253906 56.453125 125.964844 C 56.875 126.675781 57.320312 127.375 57.785156 128.058594 C 58.246094 128.746094 58.730469 129.414062 59.238281 130.070312 C 59.742188 130.726562 60.265625 131.367188 60.808594 131.988281 C 61.351562 132.613281 61.914062 133.222656 62.492188 133.8125 C 63.074219 134.402344 63.667969 134.972656 64.285156 135.527344 C 64.898438 136.082031 65.527344 136.617188 66.175781 137.132812 C 66.820312 137.648438 67.480469 138.144531 68.160156 138.621094 C 68.835938 139.097656 69.523438 139.554688 70.226562 139.988281 C 70.933594 140.425781 71.648438 140.839844 72.375 141.230469 C 73.105469 141.621094 73.84375 141.992188 74.597656 142.339844 C 75.347656 142.6875 76.105469 143.011719 76.878906 143.3125 C 77.648438 143.613281 78.425781 143.890625 79.214844 144.144531 C 80 144.402344 80.792969 144.632812 81.597656 144.839844 L 81.597656 242.480469 C 81.597656 243.71875 81.660156 244.953125 81.78125 246.183594 C 81.902344 247.414062 82.085938 248.636719 82.328125 249.851562 C 82.570312 251.066406 82.871094 252.261719 83.230469 253.445312 C 83.589844 254.628906 84.007812 255.792969 84.484375 256.9375 C 84.957031 258.078125 85.484375 259.195312 86.070312 260.289062 C 86.652344 261.378906 87.289062 262.4375 87.976562 263.464844 C 88.664062 264.496094 89.398438 265.488281 90.183594 266.445312 C 90.96875 267.398438 91.800781 268.316406 92.675781 269.191406 C 93.550781 270.066406 94.464844 270.894531 95.421875 271.679688 C 96.378906 272.464844 97.371094 273.203125 98.398438 273.890625 C 99.425781 274.578125 100.488281 275.210938 101.578125 275.796875 C 102.667969 276.378906 103.785156 276.910156 104.929688 277.382812 C 106.070312 277.855469 107.234375 278.273438 108.417969 278.632812 C 109.601562 278.992188 110.800781 279.292969 112.015625 279.535156 C 113.226562 279.78125 114.449219 279.960938 115.679688 280.085938 C 116.910156 280.207031 118.144531 280.269531 119.382812 280.269531 L 149.476562 280.269531 L 125.839844 303.902344 C 125.335938 304.375 124.882812 304.894531 124.480469 305.457031 C 124.078125 306.019531 123.734375 306.617188 123.453125 307.25 C 123.171875 307.882812 122.957031 308.535156 122.804688 309.210938 C 122.65625 309.886719 122.574219 310.570312 122.5625 311.261719 C 122.550781 311.953125 122.609375 312.640625 122.734375 313.320312 C 122.859375 314 123.050781 314.660156 123.3125 315.304688 C 123.570312 315.945312 123.890625 316.554688 124.273438 317.132812 C 124.65625 317.707031 125.089844 318.242188 125.578125 318.730469 C 126.070312 319.21875 126.601562 319.65625 127.179688 320.039062 C 127.757812 320.417969 128.367188 320.738281 129.007812 321 C 129.648438 321.257812 130.308594 321.449219 130.992188 321.578125 C 131.671875 321.703125 132.355469 321.757812 133.050781 321.746094 C 133.742188 321.734375 134.425781 321.652344 135.101562 321.503906 C 135.777344 321.355469 136.429688 321.136719 137.0625 320.855469 C 137.695312 320.574219 138.292969 320.234375 138.855469 319.832031 C 139.417969 319.429688 139.933594 318.976562 140.40625 318.46875 L 181.628906 277.246094 C 182.109375 276.769531 182.535156 276.246094 182.910156 275.683594 C 183.285156 275.121094 183.605469 274.527344 183.863281 273.902344 C 184.121094 273.277344 184.316406 272.632812 184.449219 271.96875 C 184.582031 271.304688 184.648438 270.636719 184.648438 269.960938 C 184.648438 269.28125 184.582031 268.613281 184.449219 267.949219 C 184.316406 267.285156 184.121094 266.640625 183.863281 266.015625 C 183.605469 265.390625 183.285156 264.796875 182.910156 264.234375 C 182.535156 263.671875 182.109375 263.152344 181.628906 262.671875 Z M 140.40625 221.457031 " fill-opacity="1" fill-rule="nonzero"/></g></svg>